G04 EAGLE Gerber RS-274X export*
G75*
%MOMM*%
%FSLAX34Y34*%
%LPD*%
%INCopper Layer 15*%
%IPPOS*%
%AMOC8*
5,1,8,0,0,1.08239X$1,22.5*%
G01*
%ADD10C,1.422400*%
%ADD11C,1.244600*%
%ADD12C,1.120000*%
%ADD13C,1.960000*%
%ADD14C,1.400000*%
%ADD15C,4.191000*%
%ADD16C,0.609600*%

G36*
X1012308Y2556D02*
X1012308Y2556D01*
X1012427Y2563D01*
X1012465Y2576D01*
X1012506Y2581D01*
X1012616Y2624D01*
X1012729Y2661D01*
X1012764Y2683D01*
X1012801Y2698D01*
X1012897Y2767D01*
X1012998Y2831D01*
X1013026Y2861D01*
X1013059Y2884D01*
X1013135Y2976D01*
X1013216Y3063D01*
X1013236Y3098D01*
X1013261Y3129D01*
X1013312Y3237D01*
X1013370Y3341D01*
X1013380Y3381D01*
X1013397Y3417D01*
X1013419Y3534D01*
X1013449Y3649D01*
X1013453Y3709D01*
X1013457Y3729D01*
X1013455Y3750D01*
X1013459Y3810D01*
X1013459Y758190D01*
X1013444Y758308D01*
X1013437Y758427D01*
X1013424Y758465D01*
X1013419Y758506D01*
X1013376Y758616D01*
X1013339Y758729D01*
X1013317Y758764D01*
X1013302Y758801D01*
X1013233Y758897D01*
X1013169Y758998D01*
X1013139Y759026D01*
X1013116Y759059D01*
X1013024Y759135D01*
X1012937Y759216D01*
X1012902Y759236D01*
X1012871Y759261D01*
X1012763Y759312D01*
X1012659Y759370D01*
X1012619Y759380D01*
X1012583Y759397D01*
X1012466Y759419D01*
X1012351Y759449D01*
X1012291Y759453D01*
X1012271Y759457D01*
X1012250Y759455D01*
X1012190Y759459D01*
X3810Y759459D01*
X3692Y759444D01*
X3573Y759437D01*
X3535Y759424D01*
X3494Y759419D01*
X3384Y759376D01*
X3271Y759339D01*
X3236Y759317D01*
X3199Y759302D01*
X3103Y759233D01*
X3002Y759169D01*
X2974Y759139D01*
X2941Y759116D01*
X2865Y759024D01*
X2784Y758937D01*
X2764Y758902D01*
X2739Y758871D01*
X2688Y758763D01*
X2630Y758659D01*
X2620Y758619D01*
X2603Y758583D01*
X2581Y758466D01*
X2551Y758351D01*
X2547Y758291D01*
X2543Y758271D01*
X2545Y758250D01*
X2541Y758190D01*
X2541Y3810D01*
X2556Y3692D01*
X2563Y3573D01*
X2576Y3535D01*
X2581Y3494D01*
X2624Y3384D01*
X2661Y3271D01*
X2683Y3236D01*
X2698Y3199D01*
X2767Y3103D01*
X2831Y3002D01*
X2861Y2974D01*
X2884Y2941D01*
X2976Y2865D01*
X3063Y2784D01*
X3098Y2764D01*
X3129Y2739D01*
X3237Y2688D01*
X3341Y2630D01*
X3381Y2620D01*
X3417Y2603D01*
X3534Y2581D01*
X3649Y2551D01*
X3709Y2547D01*
X3729Y2543D01*
X3750Y2545D01*
X3810Y2541D01*
X1012190Y2541D01*
X1012308Y2556D01*
G37*
%LPC*%
G36*
X973226Y700404D02*
X973226Y700404D01*
X964591Y703981D01*
X957981Y710591D01*
X954404Y719226D01*
X954404Y728574D01*
X957981Y737209D01*
X964591Y743819D01*
X973226Y747396D01*
X982574Y747396D01*
X991209Y743819D01*
X997819Y737209D01*
X1001396Y728574D01*
X1001396Y719226D01*
X997819Y710591D01*
X991209Y703981D01*
X982574Y700404D01*
X973226Y700404D01*
G37*
%LPD*%
%LPC*%
G36*
X33426Y700404D02*
X33426Y700404D01*
X24791Y703981D01*
X18181Y710591D01*
X14604Y719226D01*
X14604Y728574D01*
X18181Y737209D01*
X24791Y743819D01*
X33426Y747396D01*
X42774Y747396D01*
X51409Y743819D01*
X58019Y737209D01*
X61596Y728574D01*
X61596Y719226D01*
X58019Y710591D01*
X51409Y703981D01*
X42774Y700404D01*
X33426Y700404D01*
G37*
%LPD*%
%LPC*%
G36*
X973226Y14604D02*
X973226Y14604D01*
X964591Y18181D01*
X957981Y24791D01*
X954404Y33426D01*
X954404Y42774D01*
X957981Y51409D01*
X964591Y58019D01*
X973226Y61596D01*
X982574Y61596D01*
X991209Y58019D01*
X997819Y51409D01*
X1001396Y42774D01*
X1001396Y33426D01*
X997819Y24791D01*
X991209Y18181D01*
X982574Y14604D01*
X973226Y14604D01*
G37*
%LPD*%
%LPC*%
G36*
X33426Y14604D02*
X33426Y14604D01*
X24791Y18181D01*
X18181Y24791D01*
X14604Y33426D01*
X14604Y42774D01*
X18181Y51409D01*
X24791Y58019D01*
X33426Y61596D01*
X42774Y61596D01*
X51409Y58019D01*
X58019Y51409D01*
X61596Y42774D01*
X61596Y33426D01*
X58019Y24791D01*
X51409Y18181D01*
X42774Y14604D01*
X33426Y14604D01*
G37*
%LPD*%
%LPC*%
G36*
X528857Y412286D02*
X528857Y412286D01*
X525636Y413620D01*
X523170Y416086D01*
X521836Y419307D01*
X521836Y422793D01*
X523170Y426014D01*
X525636Y428480D01*
X528857Y429814D01*
X532343Y429814D01*
X534344Y428985D01*
X534392Y428972D01*
X534437Y428951D01*
X534545Y428930D01*
X534651Y428901D01*
X534701Y428900D01*
X534750Y428891D01*
X534859Y428898D01*
X534969Y428896D01*
X535017Y428907D01*
X535067Y428911D01*
X535171Y428944D01*
X535278Y428970D01*
X535322Y428993D01*
X535369Y429009D01*
X535462Y429067D01*
X535559Y429119D01*
X535596Y429152D01*
X535638Y429179D01*
X535713Y429259D01*
X535795Y429333D01*
X535822Y429374D01*
X535856Y429410D01*
X535909Y429506D01*
X535969Y429598D01*
X535986Y429645D01*
X536010Y429689D01*
X536037Y429795D01*
X536073Y429899D01*
X536077Y429949D01*
X536089Y429997D01*
X536099Y430157D01*
X536099Y434295D01*
X537400Y437436D01*
X537411Y437476D01*
X537423Y437501D01*
X537435Y437561D01*
X537437Y437570D01*
X537478Y437703D01*
X537479Y437723D01*
X537484Y437743D01*
X537487Y437882D01*
X537493Y438020D01*
X537489Y438040D01*
X537489Y438061D01*
X537457Y438196D01*
X537429Y438332D01*
X537420Y438350D01*
X537415Y438370D01*
X537350Y438493D01*
X537289Y438618D01*
X537276Y438633D01*
X537267Y438651D01*
X537173Y438754D01*
X537083Y438860D01*
X537066Y438871D01*
X537053Y438886D01*
X536936Y438963D01*
X536823Y439043D01*
X536804Y439050D01*
X536787Y439061D01*
X536655Y439106D01*
X536525Y439155D01*
X536505Y439158D01*
X536486Y439164D01*
X536348Y439175D01*
X536209Y439191D01*
X536189Y439188D01*
X536169Y439189D01*
X536032Y439166D01*
X535894Y439146D01*
X535868Y439137D01*
X535856Y439135D01*
X535837Y439127D01*
X535742Y439094D01*
X532343Y437686D01*
X528857Y437686D01*
X525636Y439020D01*
X523170Y441486D01*
X521836Y444707D01*
X521836Y448193D01*
X523170Y451414D01*
X525636Y453880D01*
X528857Y455214D01*
X532343Y455214D01*
X535564Y453880D01*
X538030Y451414D01*
X539364Y448193D01*
X539364Y444707D01*
X538661Y443009D01*
X538642Y442942D01*
X538614Y442878D01*
X538600Y442789D01*
X538577Y442702D01*
X538575Y442633D01*
X538565Y442564D01*
X538573Y442474D01*
X538572Y442384D01*
X538588Y442316D01*
X538594Y442247D01*
X538625Y442163D01*
X538646Y442075D01*
X538678Y442014D01*
X538702Y441948D01*
X538752Y441873D01*
X538794Y441794D01*
X538841Y441742D01*
X538881Y441685D01*
X538948Y441625D01*
X539008Y441559D01*
X539067Y441520D01*
X539119Y441474D01*
X539199Y441433D01*
X539274Y441384D01*
X539340Y441361D01*
X539402Y441330D01*
X539490Y441310D01*
X539575Y441281D01*
X539645Y441275D01*
X539713Y441260D01*
X539802Y441263D01*
X539892Y441256D01*
X539961Y441267D01*
X540030Y441270D01*
X540117Y441295D01*
X540205Y441310D01*
X540269Y441339D01*
X540336Y441358D01*
X540413Y441404D01*
X540495Y441441D01*
X540550Y441484D01*
X540610Y441520D01*
X540731Y441626D01*
X541536Y442432D01*
X546145Y444341D01*
X551135Y444341D01*
X555744Y442432D01*
X559272Y438904D01*
X561181Y434295D01*
X561181Y429305D01*
X559272Y424696D01*
X555744Y421168D01*
X551135Y419259D01*
X546145Y419259D01*
X541536Y421168D01*
X541531Y421174D01*
X541421Y421259D01*
X541314Y421348D01*
X541295Y421357D01*
X541279Y421369D01*
X541151Y421425D01*
X541026Y421484D01*
X541006Y421487D01*
X540987Y421496D01*
X540850Y421517D01*
X540713Y421543D01*
X540693Y421542D01*
X540673Y421545D01*
X540535Y421532D01*
X540396Y421524D01*
X540377Y421517D01*
X540357Y421516D01*
X540226Y421469D01*
X540094Y421426D01*
X540076Y421415D01*
X540057Y421408D01*
X539943Y421330D01*
X539825Y421256D01*
X539811Y421241D01*
X539794Y421229D01*
X539702Y421125D01*
X539607Y421024D01*
X539597Y421006D01*
X539584Y420991D01*
X539520Y420867D01*
X539453Y420745D01*
X539448Y420726D01*
X539439Y420708D01*
X539409Y420572D01*
X539374Y420437D01*
X539372Y420409D01*
X539369Y420398D01*
X539370Y420377D01*
X539364Y420277D01*
X539364Y419307D01*
X538030Y416086D01*
X535564Y413620D01*
X532343Y412286D01*
X528857Y412286D01*
G37*
%LPD*%
%LPC*%
G36*
X669308Y181959D02*
X669308Y181959D01*
X663780Y184249D01*
X659549Y188480D01*
X657259Y194008D01*
X657259Y199992D01*
X659549Y205520D01*
X663780Y209751D01*
X669308Y212041D01*
X675292Y212041D01*
X680820Y209751D01*
X685051Y205520D01*
X687341Y199992D01*
X687341Y194008D01*
X685051Y188480D01*
X680820Y184249D01*
X675292Y181959D01*
X669308Y181959D01*
G37*
%LPD*%
%LPC*%
G36*
X569308Y181959D02*
X569308Y181959D01*
X563780Y184249D01*
X559549Y188480D01*
X557259Y194008D01*
X557259Y199992D01*
X559549Y205520D01*
X563780Y209751D01*
X569308Y212041D01*
X575292Y212041D01*
X580820Y209751D01*
X585051Y205520D01*
X587341Y199992D01*
X587341Y194008D01*
X585051Y188480D01*
X580820Y184249D01*
X575292Y181959D01*
X569308Y181959D01*
G37*
%LPD*%
%LPC*%
G36*
X109265Y419259D02*
X109265Y419259D01*
X104656Y421168D01*
X101128Y424696D01*
X99219Y429305D01*
X99219Y434295D01*
X101128Y438904D01*
X104656Y442432D01*
X109265Y444341D01*
X114255Y444341D01*
X118864Y442432D01*
X122392Y438904D01*
X124301Y434295D01*
X124301Y429305D01*
X122392Y424696D01*
X118864Y421168D01*
X114255Y419259D01*
X109265Y419259D01*
G37*
%LPD*%
%LPC*%
G36*
X109265Y647859D02*
X109265Y647859D01*
X104656Y649768D01*
X101128Y653296D01*
X99219Y657905D01*
X99219Y662895D01*
X101128Y667504D01*
X104656Y671032D01*
X109265Y672941D01*
X114255Y672941D01*
X118864Y671032D01*
X122392Y667504D01*
X124301Y662895D01*
X124301Y657905D01*
X122392Y653296D01*
X118864Y649768D01*
X114255Y647859D01*
X109265Y647859D01*
G37*
%LPD*%
%LPC*%
G36*
X546145Y647859D02*
X546145Y647859D01*
X541536Y649768D01*
X538008Y653296D01*
X536099Y657905D01*
X536099Y662895D01*
X538008Y667504D01*
X541536Y671032D01*
X546145Y672941D01*
X551135Y672941D01*
X555744Y671032D01*
X559272Y667504D01*
X561181Y662895D01*
X561181Y657905D01*
X559272Y653296D01*
X555744Y649768D01*
X551135Y647859D01*
X546145Y647859D01*
G37*
%LPD*%
%LPC*%
G36*
X316045Y190459D02*
X316045Y190459D01*
X311510Y192338D01*
X308038Y195810D01*
X306159Y200345D01*
X306159Y205255D01*
X308038Y209790D01*
X311510Y213262D01*
X316045Y215141D01*
X320955Y215141D01*
X325490Y213262D01*
X328962Y209790D01*
X330841Y205255D01*
X330841Y200345D01*
X328962Y195810D01*
X325490Y192338D01*
X320955Y190459D01*
X316045Y190459D01*
G37*
%LPD*%
%LPC*%
G36*
X100145Y140459D02*
X100145Y140459D01*
X95610Y142338D01*
X92138Y145810D01*
X90259Y150345D01*
X90259Y155255D01*
X92138Y159790D01*
X95610Y163262D01*
X100145Y165141D01*
X105055Y165141D01*
X109590Y163262D01*
X113062Y159790D01*
X114941Y155255D01*
X114941Y150345D01*
X113062Y145810D01*
X109590Y142338D01*
X105055Y140459D01*
X100145Y140459D01*
G37*
%LPD*%
%LPC*%
G36*
X316045Y140459D02*
X316045Y140459D01*
X311510Y142338D01*
X308038Y145810D01*
X306159Y150345D01*
X306159Y155255D01*
X308038Y159790D01*
X311510Y163262D01*
X316045Y165141D01*
X320955Y165141D01*
X325490Y163262D01*
X328962Y159790D01*
X330841Y155255D01*
X330841Y150345D01*
X328962Y145810D01*
X325490Y142338D01*
X320955Y140459D01*
X316045Y140459D01*
G37*
%LPD*%
%LPC*%
G36*
X441045Y140459D02*
X441045Y140459D01*
X436510Y142338D01*
X433038Y145810D01*
X431159Y150345D01*
X431159Y155255D01*
X433038Y159790D01*
X436510Y163262D01*
X441045Y165141D01*
X445955Y165141D01*
X450490Y163262D01*
X453962Y159790D01*
X455841Y155255D01*
X455841Y150345D01*
X453962Y145810D01*
X450490Y142338D01*
X445955Y140459D01*
X441045Y140459D01*
G37*
%LPD*%
%LPC*%
G36*
X100145Y190459D02*
X100145Y190459D01*
X95610Y192338D01*
X92138Y195810D01*
X90259Y200345D01*
X90259Y205255D01*
X92138Y209790D01*
X95610Y213262D01*
X100145Y215141D01*
X105055Y215141D01*
X109590Y213262D01*
X113062Y209790D01*
X114941Y205255D01*
X114941Y200345D01*
X113062Y195810D01*
X109590Y192338D01*
X105055Y190459D01*
X100145Y190459D01*
G37*
%LPD*%
%LPC*%
G36*
X225145Y140459D02*
X225145Y140459D01*
X220610Y142338D01*
X217138Y145810D01*
X215259Y150345D01*
X215259Y155255D01*
X217138Y159790D01*
X220610Y163262D01*
X225145Y165141D01*
X230055Y165141D01*
X234590Y163262D01*
X238062Y159790D01*
X239941Y155255D01*
X239941Y150345D01*
X238062Y145810D01*
X234590Y142338D01*
X230055Y140459D01*
X225145Y140459D01*
G37*
%LPD*%
%LPC*%
G36*
X441045Y190459D02*
X441045Y190459D01*
X436510Y192338D01*
X433038Y195810D01*
X431159Y200345D01*
X431159Y205255D01*
X433038Y209790D01*
X436510Y213262D01*
X441045Y215141D01*
X445955Y215141D01*
X450490Y213262D01*
X453962Y209790D01*
X455841Y205255D01*
X455841Y200345D01*
X453962Y195810D01*
X450490Y192338D01*
X445955Y190459D01*
X441045Y190459D01*
G37*
%LPD*%
%LPC*%
G36*
X225145Y190459D02*
X225145Y190459D01*
X220610Y192338D01*
X217138Y195810D01*
X215259Y200345D01*
X215259Y205255D01*
X217138Y209790D01*
X220610Y213262D01*
X225145Y215141D01*
X230055Y215141D01*
X234590Y213262D01*
X238062Y209790D01*
X239941Y205255D01*
X239941Y200345D01*
X238062Y195810D01*
X234590Y192338D01*
X230055Y190459D01*
X225145Y190459D01*
G37*
%LPD*%
%LPC*%
G36*
X343520Y650747D02*
X343520Y650747D01*
X339972Y652217D01*
X337257Y654932D01*
X335787Y658480D01*
X335787Y662320D01*
X337257Y665868D01*
X339972Y668583D01*
X343520Y670053D01*
X347360Y670053D01*
X350908Y668583D01*
X353623Y665868D01*
X355093Y662320D01*
X355093Y658480D01*
X353623Y654932D01*
X350908Y652217D01*
X347360Y650747D01*
X343520Y650747D01*
G37*
%LPD*%
%LPC*%
G36*
X368920Y650747D02*
X368920Y650747D01*
X365372Y652217D01*
X362657Y654932D01*
X361187Y658480D01*
X361187Y662320D01*
X362657Y665868D01*
X365372Y668583D01*
X368920Y670053D01*
X372760Y670053D01*
X376308Y668583D01*
X379023Y665868D01*
X380493Y662320D01*
X380493Y658480D01*
X379023Y654932D01*
X376308Y652217D01*
X372760Y650747D01*
X368920Y650747D01*
G37*
%LPD*%
%LPC*%
G36*
X318120Y650747D02*
X318120Y650747D01*
X314572Y652217D01*
X311857Y654932D01*
X310387Y658480D01*
X310387Y662320D01*
X311857Y665868D01*
X314572Y668583D01*
X318120Y670053D01*
X321960Y670053D01*
X325508Y668583D01*
X328223Y665868D01*
X329693Y662320D01*
X329693Y658480D01*
X328223Y654932D01*
X325508Y652217D01*
X321960Y650747D01*
X318120Y650747D01*
G37*
%LPD*%
%LPC*%
G36*
X620402Y117459D02*
X620402Y117459D01*
X616896Y118912D01*
X614212Y121596D01*
X612759Y125102D01*
X612759Y128898D01*
X614212Y132404D01*
X616896Y135088D01*
X620402Y136541D01*
X624198Y136541D01*
X627704Y135088D01*
X630388Y132404D01*
X631841Y128898D01*
X631841Y125102D01*
X630388Y121596D01*
X627704Y118912D01*
X624198Y117459D01*
X620402Y117459D01*
G37*
%LPD*%
%LPC*%
G36*
X595402Y117459D02*
X595402Y117459D01*
X591896Y118912D01*
X589212Y121596D01*
X587759Y125102D01*
X587759Y128898D01*
X589212Y132404D01*
X591896Y135088D01*
X595402Y136541D01*
X599198Y136541D01*
X602704Y135088D01*
X605388Y132404D01*
X606841Y128898D01*
X606841Y125102D01*
X605388Y121596D01*
X602704Y118912D01*
X599198Y117459D01*
X595402Y117459D01*
G37*
%LPD*%
%LPC*%
G36*
X645402Y117459D02*
X645402Y117459D01*
X641896Y118912D01*
X639212Y121596D01*
X637759Y125102D01*
X637759Y128898D01*
X639212Y132404D01*
X641896Y135088D01*
X645402Y136541D01*
X649198Y136541D01*
X652704Y135088D01*
X655388Y132404D01*
X656841Y128898D01*
X656841Y125102D01*
X655388Y121596D01*
X652704Y118912D01*
X649198Y117459D01*
X645402Y117459D01*
G37*
%LPD*%
%LPC*%
G36*
X503457Y437686D02*
X503457Y437686D01*
X500236Y439020D01*
X497770Y441486D01*
X496436Y444707D01*
X496436Y448193D01*
X497770Y451414D01*
X500236Y453880D01*
X503457Y455214D01*
X506943Y455214D01*
X510164Y453880D01*
X512630Y451414D01*
X513964Y448193D01*
X513964Y444707D01*
X512630Y441486D01*
X510164Y439020D01*
X506943Y437686D01*
X503457Y437686D01*
G37*
%LPD*%
%LPC*%
G36*
X274857Y437686D02*
X274857Y437686D01*
X271636Y439020D01*
X269170Y441486D01*
X267836Y444707D01*
X267836Y448193D01*
X269170Y451414D01*
X271636Y453880D01*
X274857Y455214D01*
X278343Y455214D01*
X281564Y453880D01*
X284030Y451414D01*
X285364Y448193D01*
X285364Y444707D01*
X284030Y441486D01*
X281564Y439020D01*
X278343Y437686D01*
X274857Y437686D01*
G37*
%LPD*%
%LPC*%
G36*
X249457Y437686D02*
X249457Y437686D01*
X246236Y439020D01*
X243770Y441486D01*
X242436Y444707D01*
X242436Y448193D01*
X243770Y451414D01*
X246236Y453880D01*
X249457Y455214D01*
X252943Y455214D01*
X256164Y453880D01*
X258630Y451414D01*
X259964Y448193D01*
X259964Y444707D01*
X258630Y441486D01*
X256164Y439020D01*
X252943Y437686D01*
X249457Y437686D01*
G37*
%LPD*%
%LPC*%
G36*
X503457Y412286D02*
X503457Y412286D01*
X500236Y413620D01*
X497770Y416086D01*
X496436Y419307D01*
X496436Y422793D01*
X497770Y426014D01*
X500236Y428480D01*
X503457Y429814D01*
X506943Y429814D01*
X510164Y428480D01*
X512630Y426014D01*
X513964Y422793D01*
X513964Y419307D01*
X512630Y416086D01*
X510164Y413620D01*
X506943Y412286D01*
X503457Y412286D01*
G37*
%LPD*%
%LPC*%
G36*
X274857Y412286D02*
X274857Y412286D01*
X271636Y413620D01*
X269170Y416086D01*
X267836Y419307D01*
X267836Y422793D01*
X269170Y426014D01*
X271636Y428480D01*
X274857Y429814D01*
X278343Y429814D01*
X281564Y428480D01*
X284030Y426014D01*
X285364Y422793D01*
X285364Y419307D01*
X284030Y416086D01*
X281564Y413620D01*
X278343Y412286D01*
X274857Y412286D01*
G37*
%LPD*%
%LPC*%
G36*
X249457Y412286D02*
X249457Y412286D01*
X246236Y413620D01*
X243770Y416086D01*
X242436Y419307D01*
X242436Y422793D01*
X243770Y426014D01*
X246236Y428480D01*
X249457Y429814D01*
X252943Y429814D01*
X256164Y428480D01*
X258630Y426014D01*
X259964Y422793D01*
X259964Y419307D01*
X258630Y416086D01*
X256164Y413620D01*
X252943Y412286D01*
X249457Y412286D01*
G37*
%LPD*%
%LPC*%
G36*
X249457Y386886D02*
X249457Y386886D01*
X246236Y388220D01*
X243770Y390686D01*
X242436Y393907D01*
X242436Y397393D01*
X243770Y400614D01*
X246236Y403080D01*
X249457Y404414D01*
X252943Y404414D01*
X256164Y403080D01*
X258630Y400614D01*
X259964Y397393D01*
X259964Y393907D01*
X258630Y390686D01*
X256164Y388220D01*
X252943Y386886D01*
X249457Y386886D01*
G37*
%LPD*%
%LPC*%
G36*
X528857Y386886D02*
X528857Y386886D01*
X525636Y388220D01*
X523170Y390686D01*
X521836Y393907D01*
X521836Y397393D01*
X523170Y400614D01*
X525636Y403080D01*
X528857Y404414D01*
X532343Y404414D01*
X535564Y403080D01*
X538030Y400614D01*
X539364Y397393D01*
X539364Y393907D01*
X538030Y390686D01*
X535564Y388220D01*
X532343Y386886D01*
X528857Y386886D01*
G37*
%LPD*%
%LPC*%
G36*
X503457Y386886D02*
X503457Y386886D01*
X500236Y388220D01*
X497770Y390686D01*
X496436Y393907D01*
X496436Y397393D01*
X497770Y400614D01*
X500236Y403080D01*
X503457Y404414D01*
X506943Y404414D01*
X510164Y403080D01*
X512630Y400614D01*
X513964Y397393D01*
X513964Y393907D01*
X512630Y390686D01*
X510164Y388220D01*
X506943Y386886D01*
X503457Y386886D01*
G37*
%LPD*%
%LPC*%
G36*
X274857Y386886D02*
X274857Y386886D01*
X271636Y388220D01*
X269170Y390686D01*
X267836Y393907D01*
X267836Y397393D01*
X269170Y400614D01*
X271636Y403080D01*
X274857Y404414D01*
X278343Y404414D01*
X281564Y403080D01*
X284030Y400614D01*
X285364Y397393D01*
X285364Y393907D01*
X284030Y390686D01*
X281564Y388220D01*
X278343Y386886D01*
X274857Y386886D01*
G37*
%LPD*%
%LPC*%
G36*
X503457Y361486D02*
X503457Y361486D01*
X500236Y362820D01*
X497770Y365286D01*
X496436Y368507D01*
X496436Y371993D01*
X497770Y375214D01*
X500236Y377680D01*
X503457Y379014D01*
X506943Y379014D01*
X510164Y377680D01*
X512630Y375214D01*
X513964Y371993D01*
X513964Y368507D01*
X512630Y365286D01*
X510164Y362820D01*
X506943Y361486D01*
X503457Y361486D01*
G37*
%LPD*%
%LPC*%
G36*
X528857Y361486D02*
X528857Y361486D01*
X525636Y362820D01*
X523170Y365286D01*
X521836Y368507D01*
X521836Y371993D01*
X523170Y375214D01*
X525636Y377680D01*
X528857Y379014D01*
X532343Y379014D01*
X535564Y377680D01*
X538030Y375214D01*
X539364Y371993D01*
X539364Y368507D01*
X538030Y365286D01*
X535564Y362820D01*
X532343Y361486D01*
X528857Y361486D01*
G37*
%LPD*%
%LPC*%
G36*
X274857Y361486D02*
X274857Y361486D01*
X271636Y362820D01*
X269170Y365286D01*
X267836Y368507D01*
X267836Y371993D01*
X269170Y375214D01*
X271636Y377680D01*
X274857Y379014D01*
X278343Y379014D01*
X281564Y377680D01*
X284030Y375214D01*
X285364Y371993D01*
X285364Y368507D01*
X284030Y365286D01*
X281564Y362820D01*
X278343Y361486D01*
X274857Y361486D01*
G37*
%LPD*%
%LPC*%
G36*
X249457Y361486D02*
X249457Y361486D01*
X246236Y362820D01*
X243770Y365286D01*
X242436Y368507D01*
X242436Y371993D01*
X243770Y375214D01*
X246236Y377680D01*
X249457Y379014D01*
X252943Y379014D01*
X256164Y377680D01*
X258630Y375214D01*
X259964Y371993D01*
X259964Y368507D01*
X258630Y365286D01*
X256164Y362820D01*
X252943Y361486D01*
X249457Y361486D01*
G37*
%LPD*%
%LPC*%
G36*
X528857Y336086D02*
X528857Y336086D01*
X525636Y337420D01*
X523170Y339886D01*
X521836Y343107D01*
X521836Y346593D01*
X523170Y349814D01*
X525636Y352280D01*
X528857Y353614D01*
X532343Y353614D01*
X535564Y352280D01*
X538030Y349814D01*
X539364Y346593D01*
X539364Y343107D01*
X538030Y339886D01*
X535564Y337420D01*
X532343Y336086D01*
X528857Y336086D01*
G37*
%LPD*%
%LPC*%
G36*
X274857Y336086D02*
X274857Y336086D01*
X271636Y337420D01*
X269170Y339886D01*
X267836Y343107D01*
X267836Y346593D01*
X269170Y349814D01*
X271636Y352280D01*
X274857Y353614D01*
X278343Y353614D01*
X281564Y352280D01*
X284030Y349814D01*
X285364Y346593D01*
X285364Y343107D01*
X284030Y339886D01*
X281564Y337420D01*
X278343Y336086D01*
X274857Y336086D01*
G37*
%LPD*%
%LPC*%
G36*
X249457Y336086D02*
X249457Y336086D01*
X246236Y337420D01*
X243770Y339886D01*
X242436Y343107D01*
X242436Y346593D01*
X243770Y349814D01*
X246236Y352280D01*
X249457Y353614D01*
X252943Y353614D01*
X256164Y352280D01*
X258630Y349814D01*
X259964Y346593D01*
X259964Y343107D01*
X258630Y339886D01*
X256164Y337420D01*
X252943Y336086D01*
X249457Y336086D01*
G37*
%LPD*%
%LPC*%
G36*
X249457Y56686D02*
X249457Y56686D01*
X246236Y58020D01*
X243770Y60486D01*
X242436Y63707D01*
X242436Y67193D01*
X243770Y70414D01*
X246236Y72880D01*
X249457Y74214D01*
X252943Y74214D01*
X256164Y72880D01*
X258630Y70414D01*
X259964Y67193D01*
X259964Y63707D01*
X258630Y60486D01*
X256164Y58020D01*
X252943Y56686D01*
X249457Y56686D01*
G37*
%LPD*%
%LPC*%
G36*
X274857Y56686D02*
X274857Y56686D01*
X271636Y58020D01*
X269170Y60486D01*
X267836Y63707D01*
X267836Y67193D01*
X269170Y70414D01*
X271636Y72880D01*
X274857Y74214D01*
X278343Y74214D01*
X281564Y72880D01*
X284030Y70414D01*
X285364Y67193D01*
X285364Y63707D01*
X284030Y60486D01*
X281564Y58020D01*
X278343Y56686D01*
X274857Y56686D01*
G37*
%LPD*%
%LPC*%
G36*
X503457Y56686D02*
X503457Y56686D01*
X500236Y58020D01*
X497770Y60486D01*
X496436Y63707D01*
X496436Y67193D01*
X497770Y70414D01*
X500236Y72880D01*
X503457Y74214D01*
X506943Y74214D01*
X510164Y72880D01*
X512630Y70414D01*
X513964Y67193D01*
X513964Y63707D01*
X512630Y60486D01*
X510164Y58020D01*
X506943Y56686D01*
X503457Y56686D01*
G37*
%LPD*%
%LPC*%
G36*
X528857Y56686D02*
X528857Y56686D01*
X525636Y58020D01*
X523170Y60486D01*
X521836Y63707D01*
X521836Y67193D01*
X523170Y70414D01*
X525636Y72880D01*
X528857Y74214D01*
X532343Y74214D01*
X535564Y72880D01*
X538030Y70414D01*
X539364Y67193D01*
X539364Y63707D01*
X538030Y60486D01*
X535564Y58020D01*
X532343Y56686D01*
X528857Y56686D01*
G37*
%LPD*%
%LPC*%
G36*
X249457Y82086D02*
X249457Y82086D01*
X246236Y83420D01*
X243770Y85886D01*
X242436Y89107D01*
X242436Y92593D01*
X243770Y95814D01*
X246236Y98280D01*
X249457Y99614D01*
X252943Y99614D01*
X256164Y98280D01*
X258630Y95814D01*
X259964Y92593D01*
X259964Y89107D01*
X258630Y85886D01*
X256164Y83420D01*
X252943Y82086D01*
X249457Y82086D01*
G37*
%LPD*%
%LPC*%
G36*
X274857Y82086D02*
X274857Y82086D01*
X271636Y83420D01*
X269170Y85886D01*
X267836Y89107D01*
X267836Y92593D01*
X269170Y95814D01*
X271636Y98280D01*
X274857Y99614D01*
X278343Y99614D01*
X281564Y98280D01*
X284030Y95814D01*
X285364Y92593D01*
X285364Y89107D01*
X284030Y85886D01*
X281564Y83420D01*
X278343Y82086D01*
X274857Y82086D01*
G37*
%LPD*%
%LPC*%
G36*
X503457Y82086D02*
X503457Y82086D01*
X500236Y83420D01*
X497770Y85886D01*
X496436Y89107D01*
X496436Y92593D01*
X497770Y95814D01*
X500236Y98280D01*
X503457Y99614D01*
X506943Y99614D01*
X510164Y98280D01*
X512630Y95814D01*
X513964Y92593D01*
X513964Y89107D01*
X512630Y85886D01*
X510164Y83420D01*
X506943Y82086D01*
X503457Y82086D01*
G37*
%LPD*%
%LPC*%
G36*
X528857Y82086D02*
X528857Y82086D01*
X525636Y83420D01*
X523170Y85886D01*
X521836Y89107D01*
X521836Y92593D01*
X523170Y95814D01*
X525636Y98280D01*
X528857Y99614D01*
X532343Y99614D01*
X535564Y98280D01*
X538030Y95814D01*
X539364Y92593D01*
X539364Y89107D01*
X538030Y85886D01*
X535564Y83420D01*
X532343Y82086D01*
X528857Y82086D01*
G37*
%LPD*%
%LPC*%
G36*
X274857Y310686D02*
X274857Y310686D01*
X271636Y312020D01*
X269170Y314486D01*
X267836Y317707D01*
X267836Y321193D01*
X269170Y324414D01*
X271636Y326880D01*
X274857Y328214D01*
X278343Y328214D01*
X281564Y326880D01*
X284030Y324414D01*
X285364Y321193D01*
X285364Y317707D01*
X284030Y314486D01*
X281564Y312020D01*
X278343Y310686D01*
X274857Y310686D01*
G37*
%LPD*%
%LPC*%
G36*
X249457Y310686D02*
X249457Y310686D01*
X246236Y312020D01*
X243770Y314486D01*
X242436Y317707D01*
X242436Y321193D01*
X243770Y324414D01*
X246236Y326880D01*
X249457Y328214D01*
X252943Y328214D01*
X256164Y326880D01*
X258630Y324414D01*
X259964Y321193D01*
X259964Y317707D01*
X258630Y314486D01*
X256164Y312020D01*
X252943Y310686D01*
X249457Y310686D01*
G37*
%LPD*%
%LPC*%
G36*
X528857Y310686D02*
X528857Y310686D01*
X525636Y312020D01*
X523170Y314486D01*
X521836Y317707D01*
X521836Y321193D01*
X523170Y324414D01*
X525636Y326880D01*
X528857Y328214D01*
X532343Y328214D01*
X535564Y326880D01*
X538030Y324414D01*
X539364Y321193D01*
X539364Y317707D01*
X538030Y314486D01*
X535564Y312020D01*
X532343Y310686D01*
X528857Y310686D01*
G37*
%LPD*%
%LPC*%
G36*
X503457Y310686D02*
X503457Y310686D01*
X500236Y312020D01*
X497770Y314486D01*
X496436Y317707D01*
X496436Y321193D01*
X497770Y324414D01*
X500236Y326880D01*
X503457Y328214D01*
X506943Y328214D01*
X510164Y326880D01*
X512630Y324414D01*
X513964Y321193D01*
X513964Y317707D01*
X512630Y314486D01*
X510164Y312020D01*
X506943Y310686D01*
X503457Y310686D01*
G37*
%LPD*%
%LPC*%
G36*
X528857Y285286D02*
X528857Y285286D01*
X525636Y286620D01*
X523170Y289086D01*
X521836Y292307D01*
X521836Y295793D01*
X523170Y299014D01*
X525636Y301480D01*
X528857Y302814D01*
X532343Y302814D01*
X535564Y301480D01*
X538030Y299014D01*
X539364Y295793D01*
X539364Y292307D01*
X538030Y289086D01*
X535564Y286620D01*
X532343Y285286D01*
X528857Y285286D01*
G37*
%LPD*%
%LPC*%
G36*
X503457Y285286D02*
X503457Y285286D01*
X500236Y286620D01*
X497770Y289086D01*
X496436Y292307D01*
X496436Y295793D01*
X497770Y299014D01*
X500236Y301480D01*
X503457Y302814D01*
X506943Y302814D01*
X510164Y301480D01*
X512630Y299014D01*
X513964Y295793D01*
X513964Y292307D01*
X512630Y289086D01*
X510164Y286620D01*
X506943Y285286D01*
X503457Y285286D01*
G37*
%LPD*%
%LPC*%
G36*
X274857Y285286D02*
X274857Y285286D01*
X271636Y286620D01*
X269170Y289086D01*
X267836Y292307D01*
X267836Y295793D01*
X269170Y299014D01*
X271636Y301480D01*
X274857Y302814D01*
X278343Y302814D01*
X281564Y301480D01*
X284030Y299014D01*
X285364Y295793D01*
X285364Y292307D01*
X284030Y289086D01*
X281564Y286620D01*
X278343Y285286D01*
X274857Y285286D01*
G37*
%LPD*%
%LPC*%
G36*
X249457Y285286D02*
X249457Y285286D01*
X246236Y286620D01*
X243770Y289086D01*
X242436Y292307D01*
X242436Y295793D01*
X243770Y299014D01*
X246236Y301480D01*
X249457Y302814D01*
X252943Y302814D01*
X256164Y301480D01*
X258630Y299014D01*
X259964Y295793D01*
X259964Y292307D01*
X258630Y289086D01*
X256164Y286620D01*
X252943Y285286D01*
X249457Y285286D01*
G37*
%LPD*%
%LPC*%
G36*
X528857Y259886D02*
X528857Y259886D01*
X525636Y261220D01*
X523170Y263686D01*
X521836Y266907D01*
X521836Y270393D01*
X523170Y273614D01*
X525636Y276080D01*
X528857Y277414D01*
X532343Y277414D01*
X535564Y276080D01*
X538030Y273614D01*
X539364Y270393D01*
X539364Y266907D01*
X538030Y263686D01*
X535564Y261220D01*
X532343Y259886D01*
X528857Y259886D01*
G37*
%LPD*%
%LPC*%
G36*
X503457Y259886D02*
X503457Y259886D01*
X500236Y261220D01*
X497770Y263686D01*
X496436Y266907D01*
X496436Y270393D01*
X497770Y273614D01*
X500236Y276080D01*
X503457Y277414D01*
X506943Y277414D01*
X510164Y276080D01*
X512630Y273614D01*
X513964Y270393D01*
X513964Y266907D01*
X512630Y263686D01*
X510164Y261220D01*
X506943Y259886D01*
X503457Y259886D01*
G37*
%LPD*%
%LPC*%
G36*
X274857Y259886D02*
X274857Y259886D01*
X271636Y261220D01*
X269170Y263686D01*
X267836Y266907D01*
X267836Y270393D01*
X269170Y273614D01*
X271636Y276080D01*
X274857Y277414D01*
X278343Y277414D01*
X281564Y276080D01*
X284030Y273614D01*
X285364Y270393D01*
X285364Y266907D01*
X284030Y263686D01*
X281564Y261220D01*
X278343Y259886D01*
X274857Y259886D01*
G37*
%LPD*%
%LPC*%
G36*
X249457Y259886D02*
X249457Y259886D01*
X246236Y261220D01*
X243770Y263686D01*
X242436Y266907D01*
X242436Y270393D01*
X243770Y273614D01*
X246236Y276080D01*
X249457Y277414D01*
X252943Y277414D01*
X256164Y276080D01*
X258630Y273614D01*
X259964Y270393D01*
X259964Y266907D01*
X258630Y263686D01*
X256164Y261220D01*
X252943Y259886D01*
X249457Y259886D01*
G37*
%LPD*%
%LPC*%
G36*
X249457Y107486D02*
X249457Y107486D01*
X246236Y108820D01*
X243770Y111286D01*
X242436Y114507D01*
X242436Y117993D01*
X243770Y121214D01*
X246236Y123680D01*
X249457Y125014D01*
X252943Y125014D01*
X256164Y123680D01*
X258630Y121214D01*
X259964Y117993D01*
X259964Y114507D01*
X258630Y111286D01*
X256164Y108820D01*
X252943Y107486D01*
X249457Y107486D01*
G37*
%LPD*%
%LPC*%
G36*
X528857Y234486D02*
X528857Y234486D01*
X525636Y235820D01*
X523170Y238286D01*
X521836Y241507D01*
X521836Y244993D01*
X523170Y248214D01*
X525636Y250680D01*
X528857Y252014D01*
X532343Y252014D01*
X535564Y250680D01*
X538030Y248214D01*
X539364Y244993D01*
X539364Y241507D01*
X538030Y238286D01*
X535564Y235820D01*
X532343Y234486D01*
X528857Y234486D01*
G37*
%LPD*%
%LPC*%
G36*
X503457Y234486D02*
X503457Y234486D01*
X500236Y235820D01*
X497770Y238286D01*
X496436Y241507D01*
X496436Y244993D01*
X497770Y248214D01*
X500236Y250680D01*
X503457Y252014D01*
X506943Y252014D01*
X510164Y250680D01*
X512630Y248214D01*
X513964Y244993D01*
X513964Y241507D01*
X512630Y238286D01*
X510164Y235820D01*
X506943Y234486D01*
X503457Y234486D01*
G37*
%LPD*%
%LPC*%
G36*
X274857Y234486D02*
X274857Y234486D01*
X271636Y235820D01*
X269170Y238286D01*
X267836Y241507D01*
X267836Y244993D01*
X269170Y248214D01*
X271636Y250680D01*
X274857Y252014D01*
X278343Y252014D01*
X281564Y250680D01*
X284030Y248214D01*
X285364Y244993D01*
X285364Y241507D01*
X284030Y238286D01*
X281564Y235820D01*
X278343Y234486D01*
X274857Y234486D01*
G37*
%LPD*%
%LPC*%
G36*
X249457Y234486D02*
X249457Y234486D01*
X246236Y235820D01*
X243770Y238286D01*
X242436Y241507D01*
X242436Y244993D01*
X243770Y248214D01*
X246236Y250680D01*
X249457Y252014D01*
X252943Y252014D01*
X256164Y250680D01*
X258630Y248214D01*
X259964Y244993D01*
X259964Y241507D01*
X258630Y238286D01*
X256164Y235820D01*
X252943Y234486D01*
X249457Y234486D01*
G37*
%LPD*%
%LPC*%
G36*
X528857Y209086D02*
X528857Y209086D01*
X525636Y210420D01*
X523170Y212886D01*
X521836Y216107D01*
X521836Y219593D01*
X523170Y222814D01*
X525636Y225280D01*
X528857Y226614D01*
X532343Y226614D01*
X535564Y225280D01*
X538030Y222814D01*
X539364Y219593D01*
X539364Y216107D01*
X538030Y212886D01*
X535564Y210420D01*
X532343Y209086D01*
X528857Y209086D01*
G37*
%LPD*%
%LPC*%
G36*
X503457Y209086D02*
X503457Y209086D01*
X500236Y210420D01*
X497770Y212886D01*
X496436Y216107D01*
X496436Y219593D01*
X497770Y222814D01*
X500236Y225280D01*
X503457Y226614D01*
X506943Y226614D01*
X510164Y225280D01*
X512630Y222814D01*
X513964Y219593D01*
X513964Y216107D01*
X512630Y212886D01*
X510164Y210420D01*
X506943Y209086D01*
X503457Y209086D01*
G37*
%LPD*%
%LPC*%
G36*
X249457Y209086D02*
X249457Y209086D01*
X246236Y210420D01*
X243770Y212886D01*
X242436Y216107D01*
X242436Y219593D01*
X243770Y222814D01*
X246236Y225280D01*
X249457Y226614D01*
X252943Y226614D01*
X256164Y225280D01*
X258630Y222814D01*
X259964Y219593D01*
X259964Y216107D01*
X258630Y212886D01*
X256164Y210420D01*
X252943Y209086D01*
X249457Y209086D01*
G37*
%LPD*%
%LPC*%
G36*
X274857Y107486D02*
X274857Y107486D01*
X271636Y108820D01*
X269170Y111286D01*
X267836Y114507D01*
X267836Y117993D01*
X269170Y121214D01*
X271636Y123680D01*
X274857Y125014D01*
X278343Y125014D01*
X281564Y123680D01*
X284030Y121214D01*
X285364Y117993D01*
X285364Y114507D01*
X284030Y111286D01*
X281564Y108820D01*
X278343Y107486D01*
X274857Y107486D01*
G37*
%LPD*%
%LPC*%
G36*
X503457Y107486D02*
X503457Y107486D01*
X500236Y108820D01*
X497770Y111286D01*
X496436Y114507D01*
X496436Y117993D01*
X497770Y121214D01*
X500236Y123680D01*
X503457Y125014D01*
X506943Y125014D01*
X510164Y123680D01*
X512630Y121214D01*
X513964Y117993D01*
X513964Y114507D01*
X512630Y111286D01*
X510164Y108820D01*
X506943Y107486D01*
X503457Y107486D01*
G37*
%LPD*%
%LPC*%
G36*
X528857Y107486D02*
X528857Y107486D01*
X525636Y108820D01*
X523170Y111286D01*
X521836Y114507D01*
X521836Y117993D01*
X523170Y121214D01*
X525636Y123680D01*
X528857Y125014D01*
X532343Y125014D01*
X535564Y123680D01*
X538030Y121214D01*
X539364Y117993D01*
X539364Y114507D01*
X538030Y111286D01*
X535564Y108820D01*
X532343Y107486D01*
X528857Y107486D01*
G37*
%LPD*%
%LPC*%
G36*
X503457Y132886D02*
X503457Y132886D01*
X500236Y134220D01*
X497770Y136686D01*
X496436Y139907D01*
X496436Y143393D01*
X497770Y146614D01*
X500236Y149080D01*
X503457Y150414D01*
X506943Y150414D01*
X510164Y149080D01*
X512630Y146614D01*
X513964Y143393D01*
X513964Y139907D01*
X512630Y136686D01*
X510164Y134220D01*
X506943Y132886D01*
X503457Y132886D01*
G37*
%LPD*%
%LPC*%
G36*
X249457Y463086D02*
X249457Y463086D01*
X246236Y464420D01*
X243770Y466886D01*
X242436Y470107D01*
X242436Y473593D01*
X243770Y476814D01*
X246236Y479280D01*
X249457Y480614D01*
X252943Y480614D01*
X256164Y479280D01*
X258630Y476814D01*
X259964Y473593D01*
X259964Y470107D01*
X258630Y466886D01*
X256164Y464420D01*
X252943Y463086D01*
X249457Y463086D01*
G37*
%LPD*%
%LPC*%
G36*
X274857Y463086D02*
X274857Y463086D01*
X271636Y464420D01*
X269170Y466886D01*
X267836Y470107D01*
X267836Y473593D01*
X269170Y476814D01*
X271636Y479280D01*
X274857Y480614D01*
X278343Y480614D01*
X281564Y479280D01*
X284030Y476814D01*
X285364Y473593D01*
X285364Y470107D01*
X284030Y466886D01*
X281564Y464420D01*
X278343Y463086D01*
X274857Y463086D01*
G37*
%LPD*%
%LPC*%
G36*
X503457Y463086D02*
X503457Y463086D01*
X500236Y464420D01*
X497770Y466886D01*
X496436Y470107D01*
X496436Y473593D01*
X497770Y476814D01*
X500236Y479280D01*
X503457Y480614D01*
X506943Y480614D01*
X510164Y479280D01*
X512630Y476814D01*
X513964Y473593D01*
X513964Y470107D01*
X512630Y466886D01*
X510164Y464420D01*
X506943Y463086D01*
X503457Y463086D01*
G37*
%LPD*%
%LPC*%
G36*
X528857Y463086D02*
X528857Y463086D01*
X525636Y464420D01*
X523170Y466886D01*
X521836Y470107D01*
X521836Y473593D01*
X523170Y476814D01*
X525636Y479280D01*
X528857Y480614D01*
X532343Y480614D01*
X535564Y479280D01*
X538030Y476814D01*
X539364Y473593D01*
X539364Y470107D01*
X538030Y466886D01*
X535564Y464420D01*
X532343Y463086D01*
X528857Y463086D01*
G37*
%LPD*%
%LPC*%
G36*
X249457Y488486D02*
X249457Y488486D01*
X246236Y489820D01*
X243770Y492286D01*
X242436Y495507D01*
X242436Y498993D01*
X243770Y502214D01*
X246236Y504680D01*
X249457Y506014D01*
X252943Y506014D01*
X256164Y504680D01*
X258630Y502214D01*
X259964Y498993D01*
X259964Y495507D01*
X258630Y492286D01*
X256164Y489820D01*
X252943Y488486D01*
X249457Y488486D01*
G37*
%LPD*%
%LPC*%
G36*
X274857Y488486D02*
X274857Y488486D01*
X271636Y489820D01*
X269170Y492286D01*
X267836Y495507D01*
X267836Y498993D01*
X269170Y502214D01*
X271636Y504680D01*
X274857Y506014D01*
X278343Y506014D01*
X281564Y504680D01*
X284030Y502214D01*
X285364Y498993D01*
X285364Y495507D01*
X284030Y492286D01*
X281564Y489820D01*
X278343Y488486D01*
X274857Y488486D01*
G37*
%LPD*%
%LPC*%
G36*
X274857Y183686D02*
X274857Y183686D01*
X271636Y185020D01*
X269170Y187486D01*
X267836Y190707D01*
X267836Y194193D01*
X269170Y197414D01*
X271636Y199880D01*
X274857Y201214D01*
X278343Y201214D01*
X281564Y199880D01*
X284030Y197414D01*
X285364Y194193D01*
X285364Y190707D01*
X284030Y187486D01*
X281564Y185020D01*
X278343Y183686D01*
X274857Y183686D01*
G37*
%LPD*%
%LPC*%
G36*
X249457Y183686D02*
X249457Y183686D01*
X246236Y185020D01*
X243770Y187486D01*
X242436Y190707D01*
X242436Y194193D01*
X243770Y197414D01*
X246236Y199880D01*
X249457Y201214D01*
X252943Y201214D01*
X256164Y199880D01*
X258630Y197414D01*
X259964Y194193D01*
X259964Y190707D01*
X258630Y187486D01*
X256164Y185020D01*
X252943Y183686D01*
X249457Y183686D01*
G37*
%LPD*%
%LPC*%
G36*
X528857Y183686D02*
X528857Y183686D01*
X525636Y185020D01*
X523170Y187486D01*
X521836Y190707D01*
X521836Y194193D01*
X523170Y197414D01*
X525636Y199880D01*
X528857Y201214D01*
X532343Y201214D01*
X535564Y199880D01*
X538030Y197414D01*
X539364Y194193D01*
X539364Y190707D01*
X538030Y187486D01*
X535564Y185020D01*
X532343Y183686D01*
X528857Y183686D01*
G37*
%LPD*%
%LPC*%
G36*
X503457Y183686D02*
X503457Y183686D01*
X500236Y185020D01*
X497770Y187486D01*
X496436Y190707D01*
X496436Y194193D01*
X497770Y197414D01*
X500236Y199880D01*
X503457Y201214D01*
X506943Y201214D01*
X510164Y199880D01*
X512630Y197414D01*
X513964Y194193D01*
X513964Y190707D01*
X512630Y187486D01*
X510164Y185020D01*
X506943Y183686D01*
X503457Y183686D01*
G37*
%LPD*%
%LPC*%
G36*
X528857Y132886D02*
X528857Y132886D01*
X525636Y134220D01*
X523170Y136686D01*
X521836Y139907D01*
X521836Y143393D01*
X523170Y146614D01*
X525636Y149080D01*
X528857Y150414D01*
X532343Y150414D01*
X535564Y149080D01*
X538030Y146614D01*
X539364Y143393D01*
X539364Y139907D01*
X538030Y136686D01*
X535564Y134220D01*
X532343Y132886D01*
X528857Y132886D01*
G37*
%LPD*%
%LPC*%
G36*
X249457Y132886D02*
X249457Y132886D01*
X246236Y134220D01*
X243770Y136686D01*
X242436Y139907D01*
X242436Y143393D01*
X243770Y146614D01*
X246236Y149080D01*
X249457Y150414D01*
X252943Y150414D01*
X256164Y149080D01*
X258630Y146614D01*
X259964Y143393D01*
X259964Y139907D01*
X258630Y136686D01*
X256164Y134220D01*
X252943Y132886D01*
X249457Y132886D01*
G37*
%LPD*%
%LPC*%
G36*
X274857Y132886D02*
X274857Y132886D01*
X271636Y134220D01*
X269170Y136686D01*
X267836Y139907D01*
X267836Y143393D01*
X269170Y146614D01*
X271636Y149080D01*
X274857Y150414D01*
X278343Y150414D01*
X281564Y149080D01*
X284030Y146614D01*
X285364Y143393D01*
X285364Y139907D01*
X284030Y136686D01*
X281564Y134220D01*
X278343Y132886D01*
X274857Y132886D01*
G37*
%LPD*%
%LPC*%
G36*
X503457Y488486D02*
X503457Y488486D01*
X500236Y489820D01*
X497770Y492286D01*
X496436Y495507D01*
X496436Y498993D01*
X497770Y502214D01*
X500236Y504680D01*
X503457Y506014D01*
X506943Y506014D01*
X510164Y504680D01*
X512630Y502214D01*
X513964Y498993D01*
X513964Y495507D01*
X512630Y492286D01*
X510164Y489820D01*
X506943Y488486D01*
X503457Y488486D01*
G37*
%LPD*%
%LPC*%
G36*
X249457Y158286D02*
X249457Y158286D01*
X246236Y159620D01*
X243770Y162086D01*
X242436Y165307D01*
X242436Y168793D01*
X243770Y172014D01*
X246236Y174480D01*
X249457Y175814D01*
X252943Y175814D01*
X256164Y174480D01*
X258630Y172014D01*
X259964Y168793D01*
X259964Y165307D01*
X258630Y162086D01*
X256164Y159620D01*
X252943Y158286D01*
X249457Y158286D01*
G37*
%LPD*%
%LPC*%
G36*
X528857Y488486D02*
X528857Y488486D01*
X525636Y489820D01*
X523170Y492286D01*
X521836Y495507D01*
X521836Y498993D01*
X523170Y502214D01*
X525636Y504680D01*
X528857Y506014D01*
X532343Y506014D01*
X535564Y504680D01*
X538030Y502214D01*
X539364Y498993D01*
X539364Y495507D01*
X538030Y492286D01*
X535564Y489820D01*
X532343Y488486D01*
X528857Y488486D01*
G37*
%LPD*%
%LPC*%
G36*
X528857Y158286D02*
X528857Y158286D01*
X525636Y159620D01*
X523170Y162086D01*
X521836Y165307D01*
X521836Y168793D01*
X523170Y172014D01*
X525636Y174480D01*
X528857Y175814D01*
X532343Y175814D01*
X535564Y174480D01*
X538030Y172014D01*
X539364Y168793D01*
X539364Y165307D01*
X538030Y162086D01*
X535564Y159620D01*
X532343Y158286D01*
X528857Y158286D01*
G37*
%LPD*%
%LPC*%
G36*
X503457Y158286D02*
X503457Y158286D01*
X500236Y159620D01*
X497770Y162086D01*
X496436Y165307D01*
X496436Y168793D01*
X497770Y172014D01*
X500236Y174480D01*
X503457Y175814D01*
X506943Y175814D01*
X510164Y174480D01*
X512630Y172014D01*
X513964Y168793D01*
X513964Y165307D01*
X512630Y162086D01*
X510164Y159620D01*
X506943Y158286D01*
X503457Y158286D01*
G37*
%LPD*%
%LPC*%
G36*
X274857Y158286D02*
X274857Y158286D01*
X271636Y159620D01*
X269170Y162086D01*
X267836Y165307D01*
X267836Y168793D01*
X269170Y172014D01*
X271636Y174480D01*
X274857Y175814D01*
X278343Y175814D01*
X281564Y174480D01*
X284030Y172014D01*
X285364Y168793D01*
X285364Y165307D01*
X284030Y162086D01*
X281564Y159620D01*
X278343Y158286D01*
X274857Y158286D01*
G37*
%LPD*%
%LPC*%
G36*
X798481Y530859D02*
X798481Y530859D01*
X795489Y532099D01*
X793199Y534389D01*
X791959Y537381D01*
X791959Y540619D01*
X793199Y543611D01*
X795489Y545901D01*
X798481Y547141D01*
X801719Y547141D01*
X804711Y545901D01*
X807001Y543611D01*
X808241Y540619D01*
X808241Y537381D01*
X807001Y534389D01*
X804711Y532099D01*
X801719Y530859D01*
X798481Y530859D01*
G37*
%LPD*%
%LPC*%
G36*
X798481Y595859D02*
X798481Y595859D01*
X795489Y597099D01*
X793199Y599389D01*
X791959Y602381D01*
X791959Y605619D01*
X793199Y608611D01*
X795489Y610901D01*
X798481Y612141D01*
X801719Y612141D01*
X804711Y610901D01*
X807001Y608611D01*
X808241Y605619D01*
X808241Y602381D01*
X807001Y599389D01*
X804711Y597099D01*
X801719Y595859D01*
X798481Y595859D01*
G37*
%LPD*%
%LPC*%
G36*
X567848Y156971D02*
X567848Y156971D01*
X565794Y157822D01*
X564222Y159394D01*
X563371Y161448D01*
X563371Y163672D01*
X564222Y165726D01*
X565794Y167298D01*
X567848Y168149D01*
X570072Y168149D01*
X572126Y167298D01*
X573698Y165726D01*
X574549Y163672D01*
X574549Y161448D01*
X573698Y159394D01*
X572126Y157822D01*
X570072Y156971D01*
X567848Y156971D01*
G37*
%LPD*%
%LPC*%
G36*
X760888Y172211D02*
X760888Y172211D01*
X758834Y173062D01*
X757262Y174634D01*
X756411Y176688D01*
X756411Y178912D01*
X757262Y180966D01*
X758834Y182538D01*
X760888Y183389D01*
X763112Y183389D01*
X765166Y182538D01*
X766738Y180966D01*
X767589Y178912D01*
X767589Y176688D01*
X766738Y174634D01*
X765166Y173062D01*
X763112Y172211D01*
X760888Y172211D01*
G37*
%LPD*%
%LPC*%
G36*
X805338Y172211D02*
X805338Y172211D01*
X803284Y173062D01*
X801712Y174634D01*
X800861Y176688D01*
X800861Y178912D01*
X801712Y180966D01*
X803284Y182538D01*
X805338Y183389D01*
X807562Y183389D01*
X809616Y182538D01*
X811188Y180966D01*
X812039Y178912D01*
X812039Y176688D01*
X811188Y174634D01*
X809616Y173062D01*
X807562Y172211D01*
X805338Y172211D01*
G37*
%LPD*%
%LPC*%
G36*
X887888Y172211D02*
X887888Y172211D01*
X885834Y173062D01*
X884262Y174634D01*
X883411Y176688D01*
X883411Y178912D01*
X884262Y180966D01*
X885834Y182538D01*
X887888Y183389D01*
X890112Y183389D01*
X892166Y182538D01*
X893738Y180966D01*
X894589Y178912D01*
X894589Y176688D01*
X893738Y174634D01*
X892166Y173062D01*
X890112Y172211D01*
X887888Y172211D01*
G37*
%LPD*%
%LPC*%
G36*
X932338Y172211D02*
X932338Y172211D01*
X930284Y173062D01*
X928712Y174634D01*
X927861Y176688D01*
X927861Y178912D01*
X928712Y180966D01*
X930284Y182538D01*
X932338Y183389D01*
X934562Y183389D01*
X936616Y182538D01*
X938188Y180966D01*
X939039Y178912D01*
X939039Y176688D01*
X938188Y174634D01*
X936616Y173062D01*
X934562Y172211D01*
X932338Y172211D01*
G37*
%LPD*%
%LPC*%
G36*
X824388Y172211D02*
X824388Y172211D01*
X822334Y173062D01*
X820762Y174634D01*
X819911Y176688D01*
X819911Y178912D01*
X820762Y180966D01*
X822334Y182538D01*
X824388Y183389D01*
X826612Y183389D01*
X828666Y182538D01*
X830238Y180966D01*
X831089Y178912D01*
X831089Y176688D01*
X830238Y174634D01*
X828666Y173062D01*
X826612Y172211D01*
X824388Y172211D01*
G37*
%LPD*%
%LPC*%
G36*
X868838Y172211D02*
X868838Y172211D01*
X866784Y173062D01*
X865212Y174634D01*
X864361Y176688D01*
X864361Y178912D01*
X865212Y180966D01*
X866784Y182538D01*
X868838Y183389D01*
X871062Y183389D01*
X873116Y182538D01*
X874688Y180966D01*
X875539Y178912D01*
X875539Y176688D01*
X874688Y174634D01*
X873116Y173062D01*
X871062Y172211D01*
X868838Y172211D01*
G37*
%LPD*%
%LPC*%
G36*
X710088Y45211D02*
X710088Y45211D01*
X708034Y46062D01*
X706462Y47634D01*
X705611Y49688D01*
X705611Y51912D01*
X706462Y53966D01*
X708034Y55538D01*
X710088Y56389D01*
X712312Y56389D01*
X714366Y55538D01*
X715938Y53966D01*
X716789Y51912D01*
X716789Y49688D01*
X715938Y47634D01*
X714366Y46062D01*
X712312Y45211D01*
X710088Y45211D01*
G37*
%LPD*%
%LPC*%
G36*
X894238Y324611D02*
X894238Y324611D01*
X892184Y325462D01*
X890612Y327034D01*
X889761Y329088D01*
X889761Y331312D01*
X890612Y333366D01*
X892184Y334938D01*
X894238Y335789D01*
X896462Y335789D01*
X898516Y334938D01*
X900088Y333366D01*
X900939Y331312D01*
X900939Y329088D01*
X900088Y327034D01*
X898516Y325462D01*
X896462Y324611D01*
X894238Y324611D01*
G37*
%LPD*%
%LPC*%
G36*
X823118Y324611D02*
X823118Y324611D01*
X821064Y325462D01*
X819492Y327034D01*
X818641Y329088D01*
X818641Y331312D01*
X819492Y333366D01*
X821064Y334938D01*
X823118Y335789D01*
X825342Y335789D01*
X827396Y334938D01*
X828968Y333366D01*
X829819Y331312D01*
X829819Y329088D01*
X828968Y327034D01*
X827396Y325462D01*
X825342Y324611D01*
X823118Y324611D01*
G37*
%LPD*%
%LPC*%
G36*
X980598Y324611D02*
X980598Y324611D01*
X978544Y325462D01*
X976972Y327034D01*
X976121Y329088D01*
X976121Y331312D01*
X976972Y333366D01*
X978544Y334938D01*
X980598Y335789D01*
X982822Y335789D01*
X984876Y334938D01*
X986448Y333366D01*
X987299Y331312D01*
X987299Y329088D01*
X986448Y327034D01*
X984876Y325462D01*
X982822Y324611D01*
X980598Y324611D01*
G37*
%LPD*%
%LPC*%
G36*
X749458Y324611D02*
X749458Y324611D01*
X747404Y325462D01*
X745832Y327034D01*
X744981Y329088D01*
X744981Y331312D01*
X745832Y333366D01*
X747404Y334938D01*
X749458Y335789D01*
X751682Y335789D01*
X753736Y334938D01*
X755308Y333366D01*
X756159Y331312D01*
X756159Y329088D01*
X755308Y327034D01*
X753736Y325462D01*
X751682Y324611D01*
X749458Y324611D01*
G37*
%LPD*%
%LPC*%
G36*
X628808Y258571D02*
X628808Y258571D01*
X626754Y259422D01*
X625182Y260994D01*
X624331Y263048D01*
X624331Y265272D01*
X625182Y267326D01*
X626754Y268898D01*
X628808Y269749D01*
X631032Y269749D01*
X633086Y268898D01*
X634658Y267326D01*
X635509Y265272D01*
X635509Y263048D01*
X634658Y260994D01*
X633086Y259422D01*
X631032Y258571D01*
X628808Y258571D01*
G37*
%LPD*%
%LPC*%
G36*
X297179Y662939D02*
X297179Y662939D01*
X297179Y669724D01*
X298345Y669346D01*
X299699Y668656D01*
X300928Y667763D01*
X302003Y666688D01*
X302896Y665459D01*
X303586Y664105D01*
X303964Y662939D01*
X297179Y662939D01*
G37*
%LPD*%
%LPC*%
G36*
X297179Y657861D02*
X297179Y657861D01*
X303964Y657861D01*
X303586Y656695D01*
X302896Y655341D01*
X302003Y654112D01*
X300928Y653037D01*
X299699Y652144D01*
X298345Y651454D01*
X297179Y651076D01*
X297179Y657861D01*
G37*
%LPD*%
%LPC*%
G36*
X285316Y662939D02*
X285316Y662939D01*
X285694Y664105D01*
X286384Y665459D01*
X287277Y666688D01*
X288352Y667763D01*
X289581Y668656D01*
X290935Y669346D01*
X292101Y669724D01*
X292101Y662939D01*
X285316Y662939D01*
G37*
%LPD*%
%LPC*%
G36*
X290935Y651454D02*
X290935Y651454D01*
X289581Y652144D01*
X288352Y653037D01*
X287277Y654112D01*
X286384Y655341D01*
X285694Y656695D01*
X285316Y657861D01*
X292101Y657861D01*
X292101Y651076D01*
X290935Y651454D01*
G37*
%LPD*%
%LPC*%
G36*
X507422Y347072D02*
X507422Y347072D01*
X507422Y353343D01*
X507756Y353277D01*
X509351Y352616D01*
X510787Y351657D01*
X512007Y350437D01*
X512966Y349001D01*
X513627Y347406D01*
X513693Y347072D01*
X507422Y347072D01*
G37*
%LPD*%
%LPC*%
G36*
X278822Y220072D02*
X278822Y220072D01*
X278822Y226343D01*
X279156Y226277D01*
X280751Y225616D01*
X282187Y224657D01*
X283407Y223437D01*
X284366Y222001D01*
X285027Y220406D01*
X285093Y220072D01*
X278822Y220072D01*
G37*
%LPD*%
%LPC*%
G36*
X268107Y220072D02*
X268107Y220072D01*
X268173Y220406D01*
X268834Y222001D01*
X269793Y223437D01*
X271013Y224657D01*
X272449Y225616D01*
X274044Y226277D01*
X274378Y226343D01*
X274378Y220072D01*
X268107Y220072D01*
G37*
%LPD*%
%LPC*%
G36*
X507422Y342628D02*
X507422Y342628D01*
X513693Y342628D01*
X513627Y342294D01*
X512966Y340699D01*
X512007Y339263D01*
X510787Y338043D01*
X509351Y337084D01*
X507756Y336423D01*
X507422Y336357D01*
X507422Y342628D01*
G37*
%LPD*%
%LPC*%
G36*
X496707Y347072D02*
X496707Y347072D01*
X496773Y347406D01*
X497434Y349001D01*
X498393Y350437D01*
X499613Y351657D01*
X501049Y352616D01*
X502644Y353277D01*
X502978Y353343D01*
X502978Y347072D01*
X496707Y347072D01*
G37*
%LPD*%
%LPC*%
G36*
X278822Y215628D02*
X278822Y215628D01*
X285093Y215628D01*
X285027Y215294D01*
X284366Y213699D01*
X283407Y212263D01*
X282187Y211043D01*
X280751Y210084D01*
X279156Y209423D01*
X278822Y209357D01*
X278822Y215628D01*
G37*
%LPD*%
%LPC*%
G36*
X502644Y336423D02*
X502644Y336423D01*
X501049Y337084D01*
X499613Y338043D01*
X498393Y339263D01*
X497434Y340699D01*
X496773Y342294D01*
X496707Y342628D01*
X502978Y342628D01*
X502978Y336357D01*
X502644Y336423D01*
G37*
%LPD*%
%LPC*%
G36*
X274044Y209423D02*
X274044Y209423D01*
X272449Y210084D01*
X271013Y211043D01*
X269793Y212263D01*
X268834Y213699D01*
X268173Y215294D01*
X268107Y215628D01*
X274378Y215628D01*
X274378Y209357D01*
X274044Y209423D01*
G37*
%LPD*%
%LPC*%
G36*
X294639Y660399D02*
X294639Y660399D01*
X294639Y660401D01*
X294641Y660401D01*
X294641Y660399D01*
X294639Y660399D01*
G37*
%LPD*%
D10*
X370840Y660400D03*
X345440Y660400D03*
X320040Y660400D03*
X294640Y660400D03*
D11*
X251200Y65450D03*
X276600Y65450D03*
X251200Y90850D03*
X276600Y90850D03*
X251200Y116250D03*
X276600Y116250D03*
X251200Y141650D03*
X276600Y141650D03*
X251200Y167050D03*
X276600Y167050D03*
X251200Y192450D03*
X276600Y192450D03*
X251200Y217850D03*
X276600Y217850D03*
X251200Y243250D03*
X276600Y243250D03*
X251200Y268650D03*
X276600Y268650D03*
X251200Y294050D03*
X276600Y294050D03*
X251200Y319450D03*
X276600Y319450D03*
X251200Y344850D03*
X276600Y344850D03*
X251200Y370250D03*
X276600Y370250D03*
X251200Y395650D03*
X276600Y395650D03*
X251200Y421050D03*
X276600Y421050D03*
X251200Y446450D03*
X276600Y446450D03*
X251200Y471850D03*
X276600Y471850D03*
X251200Y497250D03*
X276600Y497250D03*
X505200Y65450D03*
X530600Y65450D03*
X505200Y90850D03*
X530600Y90850D03*
X505200Y116250D03*
X530600Y116250D03*
X505200Y141650D03*
X530600Y141650D03*
X505200Y167050D03*
X530600Y167050D03*
X505200Y192450D03*
X530600Y192450D03*
X505200Y217850D03*
X530600Y217850D03*
X505200Y243250D03*
X530600Y243250D03*
X505200Y268650D03*
X530600Y268650D03*
X505200Y294050D03*
X530600Y294050D03*
X505200Y319450D03*
X530600Y319450D03*
X505200Y344850D03*
X530600Y344850D03*
X505200Y370250D03*
X530600Y370250D03*
X505200Y395650D03*
X530600Y395650D03*
X505200Y421050D03*
X530600Y421050D03*
X505200Y446450D03*
X530600Y446450D03*
X505200Y471850D03*
X530600Y471850D03*
X505200Y497250D03*
X530600Y497250D03*
D12*
X800100Y604000D03*
X800100Y539000D03*
D13*
X227600Y202800D03*
X227600Y152800D03*
X102600Y152800D03*
X102600Y202800D03*
X443500Y202800D03*
X443500Y152800D03*
X318500Y152800D03*
X318500Y202800D03*
D14*
X597300Y127000D03*
X622300Y127000D03*
X647300Y127000D03*
D15*
X38100Y38100D03*
X38100Y723900D03*
X977900Y723900D03*
X977900Y38100D03*
D16*
X750570Y330200D03*
X824230Y330200D03*
X895350Y330200D03*
X981710Y330200D03*
X806450Y177800D03*
X869950Y177800D03*
X933450Y177800D03*
X711200Y50800D03*
X196850Y254000D03*
X309880Y256540D03*
X355600Y635000D03*
X400050Y635000D03*
X629920Y264160D03*
X568960Y162560D03*
X825500Y177800D03*
X889000Y177800D03*
X762000Y177800D03*
M02*
