G04 EAGLE Gerber RS-274X export*
G75*
%MOMM*%
%FSLAX34Y34*%
%LPD*%
%IN*%
%IPPOS*%
%AMOC8*
5,1,8,0,0,1.08239X$1,22.5*%
G01*
%ADD10C,0.254000*%


D10*
X0Y0D02*
X1016000Y0D01*
X1016000Y762000D01*
X0Y762000D01*
X0Y0D01*
X121760Y431363D02*
X121684Y430494D01*
X121532Y429634D01*
X121306Y428790D01*
X121008Y427970D01*
X120639Y427178D01*
X120202Y426422D01*
X119701Y425707D01*
X119140Y425038D01*
X118522Y424420D01*
X117853Y423859D01*
X117138Y423358D01*
X116382Y422921D01*
X115590Y422552D01*
X114770Y422254D01*
X113926Y422028D01*
X113067Y421876D01*
X112197Y421800D01*
X111323Y421800D01*
X110454Y421876D01*
X109594Y422028D01*
X108750Y422254D01*
X107930Y422552D01*
X107138Y422921D01*
X106382Y423358D01*
X105667Y423859D01*
X104998Y424420D01*
X104380Y425038D01*
X103819Y425707D01*
X103318Y426422D01*
X102881Y427178D01*
X102512Y427970D01*
X102214Y428790D01*
X101988Y429634D01*
X101836Y430494D01*
X101760Y431363D01*
X101760Y432237D01*
X101836Y433107D01*
X101988Y433966D01*
X102214Y434810D01*
X102512Y435630D01*
X102881Y436422D01*
X103318Y437178D01*
X103819Y437893D01*
X104380Y438562D01*
X104998Y439180D01*
X105667Y439741D01*
X106382Y440242D01*
X107138Y440679D01*
X107930Y441048D01*
X108750Y441346D01*
X109594Y441572D01*
X110454Y441724D01*
X111323Y441800D01*
X112197Y441800D01*
X113067Y441724D01*
X113926Y441572D01*
X114770Y441346D01*
X115590Y441048D01*
X116382Y440679D01*
X117138Y440242D01*
X117853Y439741D01*
X118522Y439180D01*
X119140Y438562D01*
X119701Y437893D01*
X120202Y437178D01*
X120639Y436422D01*
X121008Y435630D01*
X121306Y434810D01*
X121532Y433966D01*
X121684Y433107D01*
X121760Y432237D01*
X121760Y431363D01*
X558640Y431363D02*
X558564Y430494D01*
X558412Y429634D01*
X558186Y428790D01*
X557888Y427970D01*
X557519Y427178D01*
X557082Y426422D01*
X556581Y425707D01*
X556020Y425038D01*
X555402Y424420D01*
X554733Y423859D01*
X554018Y423358D01*
X553262Y422921D01*
X552470Y422552D01*
X551650Y422254D01*
X550806Y422028D01*
X549947Y421876D01*
X549077Y421800D01*
X548203Y421800D01*
X547334Y421876D01*
X546474Y422028D01*
X545630Y422254D01*
X544810Y422552D01*
X544018Y422921D01*
X543262Y423358D01*
X542547Y423859D01*
X541878Y424420D01*
X541260Y425038D01*
X540699Y425707D01*
X540198Y426422D01*
X539761Y427178D01*
X539392Y427970D01*
X539094Y428790D01*
X538868Y429634D01*
X538716Y430494D01*
X538640Y431363D01*
X538640Y432237D01*
X538716Y433107D01*
X538868Y433966D01*
X539094Y434810D01*
X539392Y435630D01*
X539761Y436422D01*
X540198Y437178D01*
X540699Y437893D01*
X541260Y438562D01*
X541878Y439180D01*
X542547Y439741D01*
X543262Y440242D01*
X544018Y440679D01*
X544810Y441048D01*
X545630Y441346D01*
X546474Y441572D01*
X547334Y441724D01*
X548203Y441800D01*
X549077Y441800D01*
X549947Y441724D01*
X550806Y441572D01*
X551650Y441346D01*
X552470Y441048D01*
X553262Y440679D01*
X554018Y440242D01*
X554733Y439741D01*
X555402Y439180D01*
X556020Y438562D01*
X556581Y437893D01*
X557082Y437178D01*
X557519Y436422D01*
X557888Y435630D01*
X558186Y434810D01*
X558412Y433966D01*
X558564Y433107D01*
X558640Y432237D01*
X558640Y431363D01*
X121760Y659963D02*
X121684Y659094D01*
X121532Y658234D01*
X121306Y657390D01*
X121008Y656570D01*
X120639Y655778D01*
X120202Y655022D01*
X119701Y654307D01*
X119140Y653638D01*
X118522Y653020D01*
X117853Y652459D01*
X117138Y651958D01*
X116382Y651521D01*
X115590Y651152D01*
X114770Y650854D01*
X113926Y650628D01*
X113067Y650476D01*
X112197Y650400D01*
X111323Y650400D01*
X110454Y650476D01*
X109594Y650628D01*
X108750Y650854D01*
X107930Y651152D01*
X107138Y651521D01*
X106382Y651958D01*
X105667Y652459D01*
X104998Y653020D01*
X104380Y653638D01*
X103819Y654307D01*
X103318Y655022D01*
X102881Y655778D01*
X102512Y656570D01*
X102214Y657390D01*
X101988Y658234D01*
X101836Y659094D01*
X101760Y659963D01*
X101760Y660837D01*
X101836Y661707D01*
X101988Y662566D01*
X102214Y663410D01*
X102512Y664230D01*
X102881Y665022D01*
X103318Y665778D01*
X103819Y666493D01*
X104380Y667162D01*
X104998Y667780D01*
X105667Y668341D01*
X106382Y668842D01*
X107138Y669279D01*
X107930Y669648D01*
X108750Y669946D01*
X109594Y670172D01*
X110454Y670324D01*
X111323Y670400D01*
X112197Y670400D01*
X113067Y670324D01*
X113926Y670172D01*
X114770Y669946D01*
X115590Y669648D01*
X116382Y669279D01*
X117138Y668842D01*
X117853Y668341D01*
X118522Y667780D01*
X119140Y667162D01*
X119701Y666493D01*
X120202Y665778D01*
X120639Y665022D01*
X121008Y664230D01*
X121306Y663410D01*
X121532Y662566D01*
X121684Y661707D01*
X121760Y660837D01*
X121760Y659963D01*
X558640Y659963D02*
X558564Y659094D01*
X558412Y658234D01*
X558186Y657390D01*
X557888Y656570D01*
X557519Y655778D01*
X557082Y655022D01*
X556581Y654307D01*
X556020Y653638D01*
X555402Y653020D01*
X554733Y652459D01*
X554018Y651958D01*
X553262Y651521D01*
X552470Y651152D01*
X551650Y650854D01*
X550806Y650628D01*
X549947Y650476D01*
X549077Y650400D01*
X548203Y650400D01*
X547334Y650476D01*
X546474Y650628D01*
X545630Y650854D01*
X544810Y651152D01*
X544018Y651521D01*
X543262Y651958D01*
X542547Y652459D01*
X541878Y653020D01*
X541260Y653638D01*
X540699Y654307D01*
X540198Y655022D01*
X539761Y655778D01*
X539392Y656570D01*
X539094Y657390D01*
X538868Y658234D01*
X538716Y659094D01*
X538640Y659963D01*
X538640Y660837D01*
X538716Y661707D01*
X538868Y662566D01*
X539094Y663410D01*
X539392Y664230D01*
X539761Y665022D01*
X540198Y665778D01*
X540699Y666493D01*
X541260Y667162D01*
X541878Y667780D01*
X542547Y668341D01*
X543262Y668842D01*
X544018Y669279D01*
X544810Y669648D01*
X545630Y669946D01*
X546474Y670172D01*
X547334Y670324D01*
X548203Y670400D01*
X549077Y670400D01*
X549947Y670324D01*
X550806Y670172D01*
X551650Y669946D01*
X552470Y669648D01*
X553262Y669279D01*
X554018Y668842D01*
X554733Y668341D01*
X555402Y667780D01*
X556020Y667162D01*
X556581Y666493D01*
X557082Y665778D01*
X557519Y665022D01*
X557888Y664230D01*
X558186Y663410D01*
X558412Y662566D01*
X558564Y661707D01*
X558640Y660837D01*
X558640Y659963D01*
X584800Y196509D02*
X584723Y195530D01*
X584569Y194560D01*
X584340Y193604D01*
X584036Y192670D01*
X583661Y191763D01*
X583215Y190888D01*
X582701Y190050D01*
X582124Y189255D01*
X581486Y188508D01*
X580792Y187814D01*
X580045Y187176D01*
X579250Y186599D01*
X578412Y186085D01*
X577537Y185639D01*
X576630Y185264D01*
X575696Y184960D01*
X574741Y184731D01*
X573770Y184577D01*
X572791Y184500D01*
X571809Y184500D01*
X570830Y184577D01*
X569860Y184731D01*
X568904Y184960D01*
X567970Y185264D01*
X567063Y185639D01*
X566188Y186085D01*
X565350Y186599D01*
X564555Y187176D01*
X563808Y187814D01*
X563114Y188508D01*
X562476Y189255D01*
X561899Y190050D01*
X561385Y190888D01*
X560939Y191763D01*
X560564Y192670D01*
X560260Y193604D01*
X560031Y194560D01*
X559877Y195530D01*
X559800Y196509D01*
X559800Y197491D01*
X559877Y198470D01*
X560031Y199441D01*
X560260Y200396D01*
X560564Y201330D01*
X560939Y202237D01*
X561385Y203112D01*
X561899Y203950D01*
X562476Y204745D01*
X563114Y205492D01*
X563808Y206186D01*
X564555Y206824D01*
X565350Y207401D01*
X566188Y207915D01*
X567063Y208361D01*
X567970Y208736D01*
X568904Y209040D01*
X569860Y209269D01*
X570830Y209423D01*
X571809Y209500D01*
X572791Y209500D01*
X573770Y209423D01*
X574741Y209269D01*
X575696Y209040D01*
X576630Y208736D01*
X577537Y208361D01*
X578412Y207915D01*
X579250Y207401D01*
X580045Y206824D01*
X580792Y206186D01*
X581486Y205492D01*
X582124Y204745D01*
X582701Y203950D01*
X583215Y203112D01*
X583661Y202237D01*
X584036Y201330D01*
X584340Y200396D01*
X584569Y199441D01*
X584723Y198470D01*
X584800Y197491D01*
X584800Y196509D01*
X684800Y196509D02*
X684723Y195530D01*
X684569Y194560D01*
X684340Y193604D01*
X684036Y192670D01*
X683661Y191763D01*
X683215Y190888D01*
X682701Y190050D01*
X682124Y189255D01*
X681486Y188508D01*
X680792Y187814D01*
X680045Y187176D01*
X679250Y186599D01*
X678412Y186085D01*
X677537Y185639D01*
X676630Y185264D01*
X675696Y184960D01*
X674741Y184731D01*
X673770Y184577D01*
X672791Y184500D01*
X671809Y184500D01*
X670830Y184577D01*
X669860Y184731D01*
X668904Y184960D01*
X667970Y185264D01*
X667063Y185639D01*
X666188Y186085D01*
X665350Y186599D01*
X664555Y187176D01*
X663808Y187814D01*
X663114Y188508D01*
X662476Y189255D01*
X661899Y190050D01*
X661385Y190888D01*
X660939Y191763D01*
X660564Y192670D01*
X660260Y193604D01*
X660031Y194560D01*
X659877Y195530D01*
X659800Y196509D01*
X659800Y197491D01*
X659877Y198470D01*
X660031Y199441D01*
X660260Y200396D01*
X660564Y201330D01*
X660939Y202237D01*
X661385Y203112D01*
X661899Y203950D01*
X662476Y204745D01*
X663114Y205492D01*
X663808Y206186D01*
X664555Y206824D01*
X665350Y207401D01*
X666188Y207915D01*
X667063Y208361D01*
X667970Y208736D01*
X668904Y209040D01*
X669860Y209269D01*
X670830Y209423D01*
X671809Y209500D01*
X672791Y209500D01*
X673770Y209423D01*
X674741Y209269D01*
X675696Y209040D01*
X676630Y208736D01*
X677537Y208361D01*
X678412Y207915D01*
X679250Y207401D01*
X680045Y206824D01*
X680792Y206186D01*
X681486Y205492D01*
X682124Y204745D01*
X682701Y203950D01*
X683215Y203112D01*
X683661Y202237D01*
X684036Y201330D01*
X684340Y200396D01*
X684569Y199441D01*
X684723Y198470D01*
X684800Y197491D01*
X684800Y196509D01*
M02*
