G04 EAGLE Gerber RS-274X export*
G75*
%MOMM*%
%FSLAX34Y34*%
%LPD*%
%INSoldermask Top*%
%IPPOS*%
%AMOC8*
5,1,8,0,0,1.08239X$1,22.5*%
G01*
%ADD10C,2.152400*%
%ADD11C,1.930400*%
%ADD12R,1.676400X1.676400*%
%ADD13P,1.814519X8X112.500000*%
%ADD14C,1.272400*%
%ADD15C,2.112400*%
%ADD16R,0.952400X0.952400*%
%ADD17C,1.552400*%
%ADD18C,2.652400*%
%ADD19R,1.102359X1.183641*%
%ADD20R,1.183641X1.102359*%
%ADD21C,4.597400*%
%ADD22C,0.609600*%
%ADD23C,1.168400*%


D10*
X111760Y431800D03*
X548640Y431800D03*
X111760Y660400D03*
X548640Y660400D03*
D11*
X370840Y660400D03*
X345440Y660400D03*
X320040Y660400D03*
X294640Y660400D03*
D12*
X251200Y65450D03*
D13*
X276600Y65450D03*
X251200Y90850D03*
X276600Y90850D03*
X251200Y116250D03*
X276600Y116250D03*
X251200Y141650D03*
X276600Y141650D03*
X251200Y167050D03*
X276600Y167050D03*
X251200Y192450D03*
X276600Y192450D03*
X251200Y217850D03*
X276600Y217850D03*
X251200Y243250D03*
X276600Y243250D03*
X251200Y268650D03*
X276600Y268650D03*
X251200Y294050D03*
X276600Y294050D03*
X251200Y319450D03*
X276600Y319450D03*
X251200Y344850D03*
X276600Y344850D03*
X251200Y370250D03*
X276600Y370250D03*
X251200Y395650D03*
X276600Y395650D03*
X251200Y421050D03*
X276600Y421050D03*
X251200Y446450D03*
X276600Y446450D03*
X251200Y471850D03*
X276600Y471850D03*
X251200Y497250D03*
X276600Y497250D03*
D12*
X505200Y65450D03*
D13*
X530600Y65450D03*
X505200Y90850D03*
X530600Y90850D03*
X505200Y116250D03*
X530600Y116250D03*
X505200Y141650D03*
X530600Y141650D03*
X505200Y167050D03*
X530600Y167050D03*
X505200Y192450D03*
X530600Y192450D03*
X505200Y217850D03*
X530600Y217850D03*
X505200Y243250D03*
X530600Y243250D03*
X505200Y268650D03*
X530600Y268650D03*
X505200Y294050D03*
X530600Y294050D03*
X505200Y319450D03*
X530600Y319450D03*
X505200Y344850D03*
X530600Y344850D03*
X505200Y370250D03*
X530600Y370250D03*
X505200Y395650D03*
X530600Y395650D03*
X505200Y421050D03*
X530600Y421050D03*
X505200Y446450D03*
X530600Y446450D03*
X505200Y471850D03*
X530600Y471850D03*
X505200Y497250D03*
X530600Y497250D03*
D14*
X800100Y604000D03*
X800100Y539000D03*
D15*
X227600Y202800D03*
X227600Y152800D03*
X102600Y152800D03*
X102600Y202800D03*
X443500Y202800D03*
X443500Y152800D03*
X318500Y152800D03*
X318500Y202800D03*
D16*
X718940Y330200D03*
X733940Y330200D03*
X795140Y330200D03*
X810140Y330200D03*
X863720Y330200D03*
X878720Y330200D03*
X952620Y330200D03*
X967620Y330200D03*
X779900Y177800D03*
X794900Y177800D03*
X843400Y177800D03*
X858400Y177800D03*
X906900Y177800D03*
X921900Y177800D03*
D17*
X597300Y127000D03*
X622300Y127000D03*
X647300Y127000D03*
D18*
X572300Y197000D03*
X672300Y197000D03*
D19*
X372999Y635000D03*
X389001Y635000D03*
X328549Y635000D03*
X344551Y635000D03*
X169799Y254000D03*
X185801Y254000D03*
D20*
X309880Y225679D03*
X309880Y241681D03*
D21*
X38100Y38100D03*
X38100Y723900D03*
X977900Y723900D03*
X977900Y38100D03*
D22*
X944880Y685800D02*
X944882Y685987D01*
X944889Y686174D01*
X944901Y686361D01*
X944917Y686547D01*
X944937Y686733D01*
X944962Y686918D01*
X944992Y687103D01*
X945026Y687287D01*
X945065Y687470D01*
X945108Y687652D01*
X945156Y687832D01*
X945208Y688012D01*
X945265Y688190D01*
X945325Y688367D01*
X945391Y688542D01*
X945460Y688716D01*
X945534Y688888D01*
X945612Y689058D01*
X945694Y689226D01*
X945780Y689392D01*
X945870Y689556D01*
X945964Y689717D01*
X946062Y689877D01*
X946164Y690033D01*
X946270Y690188D01*
X946380Y690339D01*
X946493Y690488D01*
X946610Y690634D01*
X946730Y690777D01*
X946854Y690917D01*
X946981Y691054D01*
X947112Y691188D01*
X947246Y691319D01*
X947383Y691446D01*
X947523Y691570D01*
X947666Y691690D01*
X947812Y691807D01*
X947961Y691920D01*
X948112Y692030D01*
X948267Y692136D01*
X948423Y692238D01*
X948583Y692336D01*
X948744Y692430D01*
X948908Y692520D01*
X949074Y692606D01*
X949242Y692688D01*
X949412Y692766D01*
X949584Y692840D01*
X949758Y692909D01*
X949933Y692975D01*
X950110Y693035D01*
X950288Y693092D01*
X950468Y693144D01*
X950648Y693192D01*
X950830Y693235D01*
X951013Y693274D01*
X951197Y693308D01*
X951382Y693338D01*
X951567Y693363D01*
X951753Y693383D01*
X951939Y693399D01*
X952126Y693411D01*
X952313Y693418D01*
X952500Y693420D01*
X952687Y693418D01*
X952874Y693411D01*
X953061Y693399D01*
X953247Y693383D01*
X953433Y693363D01*
X953618Y693338D01*
X953803Y693308D01*
X953987Y693274D01*
X954170Y693235D01*
X954352Y693192D01*
X954532Y693144D01*
X954712Y693092D01*
X954890Y693035D01*
X955067Y692975D01*
X955242Y692909D01*
X955416Y692840D01*
X955588Y692766D01*
X955758Y692688D01*
X955926Y692606D01*
X956092Y692520D01*
X956256Y692430D01*
X956417Y692336D01*
X956577Y692238D01*
X956733Y692136D01*
X956888Y692030D01*
X957039Y691920D01*
X957188Y691807D01*
X957334Y691690D01*
X957477Y691570D01*
X957617Y691446D01*
X957754Y691319D01*
X957888Y691188D01*
X958019Y691054D01*
X958146Y690917D01*
X958270Y690777D01*
X958390Y690634D01*
X958507Y690488D01*
X958620Y690339D01*
X958730Y690188D01*
X958836Y690033D01*
X958938Y689877D01*
X959036Y689717D01*
X959130Y689556D01*
X959220Y689392D01*
X959306Y689226D01*
X959388Y689058D01*
X959466Y688888D01*
X959540Y688716D01*
X959609Y688542D01*
X959675Y688367D01*
X959735Y688190D01*
X959792Y688012D01*
X959844Y687832D01*
X959892Y687652D01*
X959935Y687470D01*
X959974Y687287D01*
X960008Y687103D01*
X960038Y686918D01*
X960063Y686733D01*
X960083Y686547D01*
X960099Y686361D01*
X960111Y686174D01*
X960118Y685987D01*
X960120Y685800D01*
X960118Y685613D01*
X960111Y685426D01*
X960099Y685239D01*
X960083Y685053D01*
X960063Y684867D01*
X960038Y684682D01*
X960008Y684497D01*
X959974Y684313D01*
X959935Y684130D01*
X959892Y683948D01*
X959844Y683768D01*
X959792Y683588D01*
X959735Y683410D01*
X959675Y683233D01*
X959609Y683058D01*
X959540Y682884D01*
X959466Y682712D01*
X959388Y682542D01*
X959306Y682374D01*
X959220Y682208D01*
X959130Y682044D01*
X959036Y681883D01*
X958938Y681723D01*
X958836Y681567D01*
X958730Y681412D01*
X958620Y681261D01*
X958507Y681112D01*
X958390Y680966D01*
X958270Y680823D01*
X958146Y680683D01*
X958019Y680546D01*
X957888Y680412D01*
X957754Y680281D01*
X957617Y680154D01*
X957477Y680030D01*
X957334Y679910D01*
X957188Y679793D01*
X957039Y679680D01*
X956888Y679570D01*
X956733Y679464D01*
X956577Y679362D01*
X956417Y679264D01*
X956256Y679170D01*
X956092Y679080D01*
X955926Y678994D01*
X955758Y678912D01*
X955588Y678834D01*
X955416Y678760D01*
X955242Y678691D01*
X955067Y678625D01*
X954890Y678565D01*
X954712Y678508D01*
X954532Y678456D01*
X954352Y678408D01*
X954170Y678365D01*
X953987Y678326D01*
X953803Y678292D01*
X953618Y678262D01*
X953433Y678237D01*
X953247Y678217D01*
X953061Y678201D01*
X952874Y678189D01*
X952687Y678182D01*
X952500Y678180D01*
X952313Y678182D01*
X952126Y678189D01*
X951939Y678201D01*
X951753Y678217D01*
X951567Y678237D01*
X951382Y678262D01*
X951197Y678292D01*
X951013Y678326D01*
X950830Y678365D01*
X950648Y678408D01*
X950468Y678456D01*
X950288Y678508D01*
X950110Y678565D01*
X949933Y678625D01*
X949758Y678691D01*
X949584Y678760D01*
X949412Y678834D01*
X949242Y678912D01*
X949074Y678994D01*
X948908Y679080D01*
X948744Y679170D01*
X948583Y679264D01*
X948423Y679362D01*
X948267Y679464D01*
X948112Y679570D01*
X947961Y679680D01*
X947812Y679793D01*
X947666Y679910D01*
X947523Y680030D01*
X947383Y680154D01*
X947246Y680281D01*
X947112Y680412D01*
X946981Y680546D01*
X946854Y680683D01*
X946730Y680823D01*
X946610Y680966D01*
X946493Y681112D01*
X946380Y681261D01*
X946270Y681412D01*
X946164Y681567D01*
X946062Y681723D01*
X945964Y681883D01*
X945870Y682044D01*
X945780Y682208D01*
X945694Y682374D01*
X945612Y682542D01*
X945534Y682712D01*
X945460Y682884D01*
X945391Y683058D01*
X945325Y683233D01*
X945265Y683410D01*
X945208Y683588D01*
X945156Y683768D01*
X945108Y683948D01*
X945065Y684130D01*
X945026Y684313D01*
X944992Y684497D01*
X944962Y684682D01*
X944937Y684867D01*
X944917Y685053D01*
X944901Y685239D01*
X944889Y685426D01*
X944882Y685613D01*
X944880Y685800D01*
D23*
X952500Y685800D03*
D22*
X944880Y76200D02*
X944882Y76387D01*
X944889Y76574D01*
X944901Y76761D01*
X944917Y76947D01*
X944937Y77133D01*
X944962Y77318D01*
X944992Y77503D01*
X945026Y77687D01*
X945065Y77870D01*
X945108Y78052D01*
X945156Y78232D01*
X945208Y78412D01*
X945265Y78590D01*
X945325Y78767D01*
X945391Y78942D01*
X945460Y79116D01*
X945534Y79288D01*
X945612Y79458D01*
X945694Y79626D01*
X945780Y79792D01*
X945870Y79956D01*
X945964Y80117D01*
X946062Y80277D01*
X946164Y80433D01*
X946270Y80588D01*
X946380Y80739D01*
X946493Y80888D01*
X946610Y81034D01*
X946730Y81177D01*
X946854Y81317D01*
X946981Y81454D01*
X947112Y81588D01*
X947246Y81719D01*
X947383Y81846D01*
X947523Y81970D01*
X947666Y82090D01*
X947812Y82207D01*
X947961Y82320D01*
X948112Y82430D01*
X948267Y82536D01*
X948423Y82638D01*
X948583Y82736D01*
X948744Y82830D01*
X948908Y82920D01*
X949074Y83006D01*
X949242Y83088D01*
X949412Y83166D01*
X949584Y83240D01*
X949758Y83309D01*
X949933Y83375D01*
X950110Y83435D01*
X950288Y83492D01*
X950468Y83544D01*
X950648Y83592D01*
X950830Y83635D01*
X951013Y83674D01*
X951197Y83708D01*
X951382Y83738D01*
X951567Y83763D01*
X951753Y83783D01*
X951939Y83799D01*
X952126Y83811D01*
X952313Y83818D01*
X952500Y83820D01*
X952687Y83818D01*
X952874Y83811D01*
X953061Y83799D01*
X953247Y83783D01*
X953433Y83763D01*
X953618Y83738D01*
X953803Y83708D01*
X953987Y83674D01*
X954170Y83635D01*
X954352Y83592D01*
X954532Y83544D01*
X954712Y83492D01*
X954890Y83435D01*
X955067Y83375D01*
X955242Y83309D01*
X955416Y83240D01*
X955588Y83166D01*
X955758Y83088D01*
X955926Y83006D01*
X956092Y82920D01*
X956256Y82830D01*
X956417Y82736D01*
X956577Y82638D01*
X956733Y82536D01*
X956888Y82430D01*
X957039Y82320D01*
X957188Y82207D01*
X957334Y82090D01*
X957477Y81970D01*
X957617Y81846D01*
X957754Y81719D01*
X957888Y81588D01*
X958019Y81454D01*
X958146Y81317D01*
X958270Y81177D01*
X958390Y81034D01*
X958507Y80888D01*
X958620Y80739D01*
X958730Y80588D01*
X958836Y80433D01*
X958938Y80277D01*
X959036Y80117D01*
X959130Y79956D01*
X959220Y79792D01*
X959306Y79626D01*
X959388Y79458D01*
X959466Y79288D01*
X959540Y79116D01*
X959609Y78942D01*
X959675Y78767D01*
X959735Y78590D01*
X959792Y78412D01*
X959844Y78232D01*
X959892Y78052D01*
X959935Y77870D01*
X959974Y77687D01*
X960008Y77503D01*
X960038Y77318D01*
X960063Y77133D01*
X960083Y76947D01*
X960099Y76761D01*
X960111Y76574D01*
X960118Y76387D01*
X960120Y76200D01*
X960118Y76013D01*
X960111Y75826D01*
X960099Y75639D01*
X960083Y75453D01*
X960063Y75267D01*
X960038Y75082D01*
X960008Y74897D01*
X959974Y74713D01*
X959935Y74530D01*
X959892Y74348D01*
X959844Y74168D01*
X959792Y73988D01*
X959735Y73810D01*
X959675Y73633D01*
X959609Y73458D01*
X959540Y73284D01*
X959466Y73112D01*
X959388Y72942D01*
X959306Y72774D01*
X959220Y72608D01*
X959130Y72444D01*
X959036Y72283D01*
X958938Y72123D01*
X958836Y71967D01*
X958730Y71812D01*
X958620Y71661D01*
X958507Y71512D01*
X958390Y71366D01*
X958270Y71223D01*
X958146Y71083D01*
X958019Y70946D01*
X957888Y70812D01*
X957754Y70681D01*
X957617Y70554D01*
X957477Y70430D01*
X957334Y70310D01*
X957188Y70193D01*
X957039Y70080D01*
X956888Y69970D01*
X956733Y69864D01*
X956577Y69762D01*
X956417Y69664D01*
X956256Y69570D01*
X956092Y69480D01*
X955926Y69394D01*
X955758Y69312D01*
X955588Y69234D01*
X955416Y69160D01*
X955242Y69091D01*
X955067Y69025D01*
X954890Y68965D01*
X954712Y68908D01*
X954532Y68856D01*
X954352Y68808D01*
X954170Y68765D01*
X953987Y68726D01*
X953803Y68692D01*
X953618Y68662D01*
X953433Y68637D01*
X953247Y68617D01*
X953061Y68601D01*
X952874Y68589D01*
X952687Y68582D01*
X952500Y68580D01*
X952313Y68582D01*
X952126Y68589D01*
X951939Y68601D01*
X951753Y68617D01*
X951567Y68637D01*
X951382Y68662D01*
X951197Y68692D01*
X951013Y68726D01*
X950830Y68765D01*
X950648Y68808D01*
X950468Y68856D01*
X950288Y68908D01*
X950110Y68965D01*
X949933Y69025D01*
X949758Y69091D01*
X949584Y69160D01*
X949412Y69234D01*
X949242Y69312D01*
X949074Y69394D01*
X948908Y69480D01*
X948744Y69570D01*
X948583Y69664D01*
X948423Y69762D01*
X948267Y69864D01*
X948112Y69970D01*
X947961Y70080D01*
X947812Y70193D01*
X947666Y70310D01*
X947523Y70430D01*
X947383Y70554D01*
X947246Y70681D01*
X947112Y70812D01*
X946981Y70946D01*
X946854Y71083D01*
X946730Y71223D01*
X946610Y71366D01*
X946493Y71512D01*
X946380Y71661D01*
X946270Y71812D01*
X946164Y71967D01*
X946062Y72123D01*
X945964Y72283D01*
X945870Y72444D01*
X945780Y72608D01*
X945694Y72774D01*
X945612Y72942D01*
X945534Y73112D01*
X945460Y73284D01*
X945391Y73458D01*
X945325Y73633D01*
X945265Y73810D01*
X945208Y73988D01*
X945156Y74168D01*
X945108Y74348D01*
X945065Y74530D01*
X945026Y74713D01*
X944992Y74897D01*
X944962Y75082D01*
X944937Y75267D01*
X944917Y75453D01*
X944901Y75639D01*
X944889Y75826D01*
X944882Y76013D01*
X944880Y76200D01*
D23*
X952500Y76200D03*
D22*
X55880Y76200D02*
X55882Y76387D01*
X55889Y76574D01*
X55901Y76761D01*
X55917Y76947D01*
X55937Y77133D01*
X55962Y77318D01*
X55992Y77503D01*
X56026Y77687D01*
X56065Y77870D01*
X56108Y78052D01*
X56156Y78232D01*
X56208Y78412D01*
X56265Y78590D01*
X56325Y78767D01*
X56391Y78942D01*
X56460Y79116D01*
X56534Y79288D01*
X56612Y79458D01*
X56694Y79626D01*
X56780Y79792D01*
X56870Y79956D01*
X56964Y80117D01*
X57062Y80277D01*
X57164Y80433D01*
X57270Y80588D01*
X57380Y80739D01*
X57493Y80888D01*
X57610Y81034D01*
X57730Y81177D01*
X57854Y81317D01*
X57981Y81454D01*
X58112Y81588D01*
X58246Y81719D01*
X58383Y81846D01*
X58523Y81970D01*
X58666Y82090D01*
X58812Y82207D01*
X58961Y82320D01*
X59112Y82430D01*
X59267Y82536D01*
X59423Y82638D01*
X59583Y82736D01*
X59744Y82830D01*
X59908Y82920D01*
X60074Y83006D01*
X60242Y83088D01*
X60412Y83166D01*
X60584Y83240D01*
X60758Y83309D01*
X60933Y83375D01*
X61110Y83435D01*
X61288Y83492D01*
X61468Y83544D01*
X61648Y83592D01*
X61830Y83635D01*
X62013Y83674D01*
X62197Y83708D01*
X62382Y83738D01*
X62567Y83763D01*
X62753Y83783D01*
X62939Y83799D01*
X63126Y83811D01*
X63313Y83818D01*
X63500Y83820D01*
X63687Y83818D01*
X63874Y83811D01*
X64061Y83799D01*
X64247Y83783D01*
X64433Y83763D01*
X64618Y83738D01*
X64803Y83708D01*
X64987Y83674D01*
X65170Y83635D01*
X65352Y83592D01*
X65532Y83544D01*
X65712Y83492D01*
X65890Y83435D01*
X66067Y83375D01*
X66242Y83309D01*
X66416Y83240D01*
X66588Y83166D01*
X66758Y83088D01*
X66926Y83006D01*
X67092Y82920D01*
X67256Y82830D01*
X67417Y82736D01*
X67577Y82638D01*
X67733Y82536D01*
X67888Y82430D01*
X68039Y82320D01*
X68188Y82207D01*
X68334Y82090D01*
X68477Y81970D01*
X68617Y81846D01*
X68754Y81719D01*
X68888Y81588D01*
X69019Y81454D01*
X69146Y81317D01*
X69270Y81177D01*
X69390Y81034D01*
X69507Y80888D01*
X69620Y80739D01*
X69730Y80588D01*
X69836Y80433D01*
X69938Y80277D01*
X70036Y80117D01*
X70130Y79956D01*
X70220Y79792D01*
X70306Y79626D01*
X70388Y79458D01*
X70466Y79288D01*
X70540Y79116D01*
X70609Y78942D01*
X70675Y78767D01*
X70735Y78590D01*
X70792Y78412D01*
X70844Y78232D01*
X70892Y78052D01*
X70935Y77870D01*
X70974Y77687D01*
X71008Y77503D01*
X71038Y77318D01*
X71063Y77133D01*
X71083Y76947D01*
X71099Y76761D01*
X71111Y76574D01*
X71118Y76387D01*
X71120Y76200D01*
X71118Y76013D01*
X71111Y75826D01*
X71099Y75639D01*
X71083Y75453D01*
X71063Y75267D01*
X71038Y75082D01*
X71008Y74897D01*
X70974Y74713D01*
X70935Y74530D01*
X70892Y74348D01*
X70844Y74168D01*
X70792Y73988D01*
X70735Y73810D01*
X70675Y73633D01*
X70609Y73458D01*
X70540Y73284D01*
X70466Y73112D01*
X70388Y72942D01*
X70306Y72774D01*
X70220Y72608D01*
X70130Y72444D01*
X70036Y72283D01*
X69938Y72123D01*
X69836Y71967D01*
X69730Y71812D01*
X69620Y71661D01*
X69507Y71512D01*
X69390Y71366D01*
X69270Y71223D01*
X69146Y71083D01*
X69019Y70946D01*
X68888Y70812D01*
X68754Y70681D01*
X68617Y70554D01*
X68477Y70430D01*
X68334Y70310D01*
X68188Y70193D01*
X68039Y70080D01*
X67888Y69970D01*
X67733Y69864D01*
X67577Y69762D01*
X67417Y69664D01*
X67256Y69570D01*
X67092Y69480D01*
X66926Y69394D01*
X66758Y69312D01*
X66588Y69234D01*
X66416Y69160D01*
X66242Y69091D01*
X66067Y69025D01*
X65890Y68965D01*
X65712Y68908D01*
X65532Y68856D01*
X65352Y68808D01*
X65170Y68765D01*
X64987Y68726D01*
X64803Y68692D01*
X64618Y68662D01*
X64433Y68637D01*
X64247Y68617D01*
X64061Y68601D01*
X63874Y68589D01*
X63687Y68582D01*
X63500Y68580D01*
X63313Y68582D01*
X63126Y68589D01*
X62939Y68601D01*
X62753Y68617D01*
X62567Y68637D01*
X62382Y68662D01*
X62197Y68692D01*
X62013Y68726D01*
X61830Y68765D01*
X61648Y68808D01*
X61468Y68856D01*
X61288Y68908D01*
X61110Y68965D01*
X60933Y69025D01*
X60758Y69091D01*
X60584Y69160D01*
X60412Y69234D01*
X60242Y69312D01*
X60074Y69394D01*
X59908Y69480D01*
X59744Y69570D01*
X59583Y69664D01*
X59423Y69762D01*
X59267Y69864D01*
X59112Y69970D01*
X58961Y70080D01*
X58812Y70193D01*
X58666Y70310D01*
X58523Y70430D01*
X58383Y70554D01*
X58246Y70681D01*
X58112Y70812D01*
X57981Y70946D01*
X57854Y71083D01*
X57730Y71223D01*
X57610Y71366D01*
X57493Y71512D01*
X57380Y71661D01*
X57270Y71812D01*
X57164Y71967D01*
X57062Y72123D01*
X56964Y72283D01*
X56870Y72444D01*
X56780Y72608D01*
X56694Y72774D01*
X56612Y72942D01*
X56534Y73112D01*
X56460Y73284D01*
X56391Y73458D01*
X56325Y73633D01*
X56265Y73810D01*
X56208Y73988D01*
X56156Y74168D01*
X56108Y74348D01*
X56065Y74530D01*
X56026Y74713D01*
X55992Y74897D01*
X55962Y75082D01*
X55937Y75267D01*
X55917Y75453D01*
X55901Y75639D01*
X55889Y75826D01*
X55882Y76013D01*
X55880Y76200D01*
D23*
X63500Y76200D03*
D20*
X711200Y17399D03*
X711200Y33401D03*
M02*
